<?xml version="1.0" encoding="UTF-8"?>
<svg id="Layer_1" xmlns="http://www.w3.org/2000/svg" version="1.1" xmlns:xlink="http://www.w3.org/1999/xlink" viewBox="0 0 160 160">
  <defs>
    <style>
      .st0 {
        fill: url(#linear-gradient);
      }

      .st0, .st1, .st2, .st3, .st4, .st5 {
        stroke: #000;
        stroke-miterlimit: 10;
      }

      .st1 {
        fill: none;
      }

      .st2 {
        fill: url(#linear-gradient2);
      }

      .st3 {
        fill: url(#linear-gradient4);
      }

      .st4 {
        fill: url(#linear-gradient3);
      }

      .st5 {
        fill: url(#linear-gradient1);
      }
    </style>
    <linearGradient id="linear-gradient" x1="58.75" y1="63.51" x2="88.75" y2="63.51" gradientTransform="translate(150 138.75) rotate(-180)" gradientUnits="userSpaceOnUse">
      <stop offset="0" stop-color="#fff"/>
      <stop offset="1" stop-color="#e8b123"/>
    </linearGradient>
    <linearGradient id="linear-gradient1" x1="90.19" y1="57.31" x2="134.27" y2="72.5" gradientUnits="userSpaceOnUse">
      <stop offset="0" stop-color="#333"/>
      <stop offset=".1" stop-color="#545454"/>
      <stop offset=".27" stop-color="#878787"/>
      <stop offset=".43" stop-color="#b2b2b2"/>
      <stop offset=".59" stop-color="#d3d3d3"/>
      <stop offset=".74" stop-color="#ebebeb"/>
      <stop offset=".88" stop-color="#fafafa"/>
      <stop offset="1" stop-color="#fff"/>
    </linearGradient>
    <linearGradient id="linear-gradient2" x1="80" y1="6.82" x2="80" y2="30.15" gradientUnits="userSpaceOnUse">
      <stop offset="0" stop-color="#fff"/>
      <stop offset="1" stop-color="#5f3d00"/>
    </linearGradient>
    <linearGradient id="linear-gradient3" x1="61.25" y1="129.62" x2="91.25" y2="129.62" gradientUnits="userSpaceOnUse">
      <stop offset="0" stop-color="#fff"/>
      <stop offset="1" stop-color="#c69c6d"/>
    </linearGradient>
    <linearGradient id="linear-gradient4" x1="72.5" y1="148.64" x2="80" y2="148.64" gradientUnits="userSpaceOnUse">
      <stop offset="0" stop-color="#e6e6e6"/>
      <stop offset=".03" stop-color="#d7d7d7"/>
      <stop offset=".13" stop-color="#a5a5a5"/>
      <stop offset=".23" stop-color="#797979"/>
      <stop offset=".34" stop-color="#535353"/>
      <stop offset=".45" stop-color="#353535"/>
      <stop offset=".57" stop-color="#1d1d1d"/>
      <stop offset=".69" stop-color="#0d0d0d"/>
      <stop offset=".83" stop-color="#030303"/>
      <stop offset="1" stop-color="#000"/>
    </linearGradient>
  </defs>
  <polygon class="st0" points="71.25 118.99 81.25 118.99 91.25 115.24 91.25 31.5 61.25 31.49 61.25 115.24 71.25 118.99"/>
  <polygon class="st5" points="107.55 77.68 125 52.75 107.55 77.68 118.16 77.68 135 52.75 91.25 52.74 91.25 77.68 107.55 77.68"/>
  <path class="st2" d="M79.76,32.12h10s0,0,0,0h50l19.24-28.12c-33.73,0-128.03-.03-157.99.02l18.75,28.1s30.95-.06,40,0h20Z"/>
  <g>
    <path class="st4" d="M81.25,118.92c-1.25-5-8.75-3.75-10,0-4.98-6.22-9.95-3.78-10-3.75.12.4,1.21,4.57,11.25,29.83.79-.68,4.32-2.94,7.5,0,2.19-5.64,5.51-14.83,11.25-29.83,0,0-5-3.75-10,3.75Z"/>
    <path class="st3" d="M72.5,145c1.15,3.3,3.75,8.75,3.75,8.75l3.75-8.75c-3.18-2.94-6.71-.68-7.5,0Z"/>
  </g>
  <line class="st1" x1="20.24" y1="3.75" x2="20.24" y2="10"/>
  <line class="st1" x1="30.24" y1="3.75" x2="30.24" y2="10"/>
  <line class="st1" x1="40.24" y1="3.75" x2="40.24" y2="10"/>
  <line class="st1" x1="50.24" y1="3.75" x2="50.24" y2="10"/>
  <line class="st1" x1="60.24" y1="3.75" x2="60.24" y2="10"/>
  <line class="st1" x1="70.24" y1="3.75" x2="70.24" y2="10"/>
  <line class="st1" x1="80.24" y1="3.75" x2="80.24" y2="10"/>
  <line class="st1" x1="90.24" y1="3.75" x2="90.24" y2="10"/>
  <line class="st1" x1="100.24" y1="3.75" x2="100.24" y2="10"/>
  <line class="st1" x1="110.24" y1="3.75" x2="110.24" y2="10"/>
  <line class="st1" x1="120.24" y1="3.75" x2="120.24" y2="10"/>
  <line class="st1" x1="130.24" y1="3.75" x2="130.24" y2="10"/>
  <line class="st1" x1="140.24" y1="3.75" x2="140.24" y2="10"/>
</svg>
