<?xml version="1.0" encoding="UTF-8"?>
<svg id="Layer_1" xmlns="http://www.w3.org/2000/svg" version="1.1" viewBox="0 0 160 160">
  <!-- Generator: Adobe Illustrator 30.0.0, SVG Export Plug-In . SVG Version: 2.1.1 Build 123)  -->
  <defs>
    <style>
      .st0 {
        fill: none;
        stroke: #000;
        stroke-miterlimit: 10;
      }
    </style>
  </defs>
  <path class="st0" d="M20,30s30.95-.06,40,0c-.11,8.74.18,61.39,0,90-.07-.39,0,1.25,15,38.75l14.84-38.75v-52.57h27.07l16.84-24.93-43.91.57c0-12.68.16-13.07.16-13.07h50l19.24-27.5c-2.82,0-115.67-.02-115.67-.02l-42.32.03,18.75,27.48Z"/>
  <path class="st0" d="M91.28,40.21"/>
  <path class="st0" d="M109.81,24.4"/>
  <line class="st0" x1="89.84" y1="67.43" x2="116.91" y2="67.43"/>
  <path class="st0" d="M60,120s5-2.5,10,3.75c1.25-3.75,8.75-5,10,0,5-7.5,10-3.75,10-3.75"/>
  <path class="st0" d="M71.25,150s3.75-3.75,7.5,0"/>
  <line class="st0" x1="70" y1="123.75" x2="70" y2="30"/>
  <line class="st0" x1="80" y1="123.75" x2="80" y2="30"/>
  <line class="st0" x1="60" y1="30" x2="90" y2="30"/>
  <line class="st0" x1="123.75" y1="42.5" x2="106.25" y2="67.5"/>
</svg>