<?xml version="1.0" encoding="UTF-8"?>
<svg id="Layer_1" xmlns="http://www.w3.org/2000/svg" version="1.1" xmlns:xlink="http://www.w3.org/1999/xlink" viewBox="0 0 160 160">
  <!-- Generator: Adobe Illustrator 30.0.0, SVG Export Plug-In . SVG Version: 2.1.1 Build 123)  -->
  <defs>
    <style>
      .st0 {
        fill: #fdfcfa;
      }

      .st1 {
        fill: #f9b632;
      }

      .st2 {
        fill: #9fbdc0;
      }

      .st3 {
        fill: #4bcaed;
      }

      .st4 {
        fill: #f9f9fa;
      }

      .st5 {
        fill: #7a131d;
      }

      .st6 {
        fill: #6b523c;
      }

      .st7 {
        fill: #aa3d22;
      }

      .st8 {
        fill: #281e29;
      }

      .st9 {
        fill: #ad351d;
      }

      .st10 {
        fill: #fce2b9;
      }

      .st11 {
        fill: #343c89;
      }

      .st12 {
        fill: #384a54;
      }

      .st13 {
        fill: #d46a23;
      }

      .st14 {
        fill: none;
        stroke: #000;
        stroke-miterlimit: 10;
      }

      .st15 {
        fill: #f53644;
      }

      .st16 {
        fill: #8a2b20;
      }

      .st17 {
        fill: #c33f40;
      }

      .st18 {
        fill: #892e1b;
      }

      .st19 {
        fill: #eebc73;
      }

      .st20 {
        fill: #7b878c;
      }

      .st21 {
        fill: #3a201b;
      }

      .st22 {
        fill: #b13918;
      }

      .st23 {
        fill: #a7b3b1;
      }

      .st24 {
        fill: #f26030;
      }

      .st25 {
        fill: #28353e;
      }

      .st26 {
        fill: #9c2b24;
      }

      .st27 {
        fill: #f9b85c;
      }

      .st28 {
        fill: #ad3e20;
      }

      .st29 {
        fill: #fec632;
      }

      .st30 {
        fill: #fdaf4d;
      }

      .st31 {
        fill: #c45826;
      }

      .st32 {
        fill: #ce6023;
      }

      .st33 {
        fill: #3a2920;
      }

      .st34 {
        fill: #cfeffa;
      }

      .st35 {
        fill: #881f20;
      }

      .st36 {
        fill: #92acb0;
      }

      .st37 {
        fill: #4d3429;
      }

      .st38 {
        fill: #c9dee0;
      }

      .st39 {
        fill: #bc4f26;
      }

      .st40 {
        fill: #6ab949;
      }

      .st41 {
        fill: #96291d;
      }

      .st42 {
        fill: #c56d14;
      }

      .st43 {
        fill: #d1a261;
      }

      .st44 {
        fill: #bf303b;
      }

      .st45 {
        fill: #8f2823;
      }

      .st46 {
        fill: #f4c67f;
      }

      .st47 {
        fill: #482f1e;
      }

      .st48 {
        fill: #828f93;
      }

      .st49 {
        fill: #975332;
      }

      .st50 {
        fill: #f2ad4a;
      }

      .st51 {
        fill: #110604;
      }

      .st52 {
        fill: #c48651;
      }

      .st53 {
        fill: #a03a21;
      }

      .st54 {
        fill: #c81627;
      }

      .st55 {
        fill: #60a943;
      }

      .st56 {
        fill: #dead64;
      }

      .st57 {
        fill: #912c1f;
      }

      .st58 {
        fill: #ae3a21;
      }

      .st59 {
        fill: #f1a927;
      }

      .st60 {
        fill: #110201;
      }

      .st61 {
        fill: #cb581d;
      }

      .st62 {
        fill: #b0b2b3;
      }

      .st63 {
        fill: #7d161b;
      }

      .st64 {
        fill: #d64726;
      }

      .st65 {
        fill: #ea9f48;
      }

      .st66 {
        fill: #7d1b1b;
      }

      .st67 {
        fill: #912a23;
      }

      .st68 {
        fill: #f8dd7d;
      }

      .st69 {
        fill: #d26322;
      }

      .st70 {
        fill: url(#linear-gradient1);
      }

      .st71 {
        fill: #9c2c22;
      }

      .st72 {
        fill: #95d165;
      }

      .st73 {
        fill: #fbe4b7;
      }

      .st74 {
        fill: #be4918;
      }

      .st75 {
        fill: #b34424;
      }

      .st76 {
        fill: #e2ad68;
      }

      .st77 {
        fill: #fbbd68;
      }

      .st78 {
        fill: #fd6c27;
      }

      .st79 {
        fill: #872220;
      }

      .st80 {
        fill: #f65527;
      }

      .st81 {
        fill: #ab3e22;
      }

      .st82 {
        fill: #f2c064;
      }

      .st83 {
        fill: #8d2822;
      }

      .st84 {
        fill: #8c231d;
      }

      .st85 {
        fill: #c2d5d5;
      }

      .st86 {
        fill: #862320;
      }

      .st87 {
        fill: #f66a5a;
      }

      .st88 {
        fill: #8b3119;
      }

      .st89 {
        fill: #9f3223;
      }

      .st90 {
        fill: #f4b650;
      }

      .st91 {
        fill: #e2ad5d;
      }

      .st92 {
        fill: #6c1a1c;
      }

      .st93 {
        fill: #aa211e;
      }

      .st94 {
        fill: #b86326;
      }

      .st95 {
        fill: #7c888d;
      }

      .st96 {
        fill: #c88952;
      }

      .st97 {
        fill: #c36928;
      }

      .st98 {
        fill: #8f2724;
      }

      .st99 {
        fill: #e1ac5d;
      }

      .st100 {
        fill: #881b23;
      }

      .st101 {
        fill: #b0c1c7;
      }

      .st102 {
        fill: #872d17;
      }

      .st103 {
        fill: #3c2718;
      }

      .st104 {
        fill: #fe983f;
      }

      .st105 {
        fill: #deac68;
      }

      .st106 {
        fill: #982e20;
      }

      .st107 {
        fill: #1e2c34;
      }

      .st108 {
        fill: #90211d;
      }

      .st109 {
        fill: #f2fcff;
      }

      .st110 {
        fill: #d0661a;
      }

      .st111 {
        fill: #922819;
      }

      .st112 {
        fill: #b52116;
      }

      .st113 {
        fill: #ae3f21;
      }

      .st114 {
        fill: #fbd986;
      }

      .st115 {
        fill: #4c5193;
      }

      .st116 {
        fill: #d97c1b;
      }

      .st117 {
        fill: #e0ac69;
      }

      .st118 {
        fill: #dfad65;
      }

      .st119 {
        fill: #86281b;
      }

      .st120 {
        fill: #f1c272;
      }

      .st121 {
        fill: #321911;
      }

      .st122 {
        fill: #7c1924;
      }

      .st123 {
        fill: #d5293a;
      }

      .st124 {
        fill: #dfa95b;
      }

      .st125 {
        fill: #3a363a;
      }

      .st126 {
        fill: #14b7d8;
      }

      .st127 {
        fill: #402f27;
      }

      .st128 {
        fill: #294045;
      }

      .st129 {
        fill: #ca5e0b;
      }

      .st130 {
        fill: #80161a;
      }

      .st131 {
        fill: #e9a246;
      }

      .st132 {
        fill: #844529;
      }

      .st133 {
        fill: #8e2220;
      }

      .st134 {
        fill: #c96123;
      }

      .st135 {
        fill: #262a68;
      }

      .st136 {
        fill: #fcb864;
      }

      .st137 {
        fill: #832a18;
      }

      .st138 {
        fill: #bc6425;
      }

      .st139 {
        fill: #b44524;
      }

      .st140 {
        fill: #b83a10;
      }

      .st141 {
        fill: #84221c;
      }

      .st142 {
        fill: #a73c24;
      }

      .st143 {
        fill: #f0bf65;
      }

      .st144 {
        fill: #b74416;
      }

      .st145 {
        fill: #d6701e;
      }

      .st146 {
        fill: #7e9192;
      }

      .st147 {
        fill: #3a499c;
      }

      .st148 {
        fill: #790e1c;
      }

      .st149 {
        fill: #a03322;
      }

      .st150 {
        fill: #9a2d22;
      }

      .st151 {
        fill: #92291f;
      }

      .st152 {
        fill: #962b20;
      }

      .st153 {
        fill: #b64310;
      }

      .st154 {
        fill: #fdd1a3;
      }

      .st155 {
        fill: #95291e;
      }

      .st156 {
        fill: #852c17;
      }

      .st157 {
        fill: #780f1b;
      }

      .st158 {
        fill: #8e2822;
      }

      .st159 {
        fill: #a53627;
      }

      .st160 {
        fill: #8f2720;
      }

      .st161 {
        fill: #deaa5f;
      }

      .st162 {
        fill: #a8bbbc;
      }

      .st163 {
        fill: #899;
      }

      .st164 {
        fill: #91180c;
      }

      .st165 {
        fill: #c2d5d9;
      }

      .st166 {
        fill: #8b2017;
      }

      .st167 {
        fill: #851a1c;
      }

      .st168 {
        fill: #2a3342;
      }

      .st169 {
        fill: #94282a;
      }

      .st170 {
        fill: #92231b;
      }

      .st171 {
        fill: #902424;
      }

      .st172 {
        fill: #48392f;
      }

      .st173 {
        fill: #c75b23;
      }

      .st174 {
        fill: #882f1b;
      }

      .st175 {
        fill: #931f15;
      }

      .st176 {
        fill: #c04f20;
      }

      .st177 {
        fill: #bf5524;
      }

      .st178 {
        fill: #609e3e;
      }

      .st179 {
        fill: #4b686c;
      }

      .st180 {
        fill: #93a1a2;
      }

      .st181 {
        fill: #d0b476;
      }

      .st182 {
        fill: #474d95;
      }

      .st183 {
        fill: #85271c;
      }

      .st184 {
        fill: #861917;
      }

      .st185 {
        fill: #bc6128;
      }

      .st186 {
        fill: #ffce3a;
      }

      .st187 {
        fill: #51392e;
      }

      .st188 {
        fill: #b25922;
      }

      .st189 {
        fill: #dbdde0;
      }

      .st190 {
        fill: #ef8e21;
      }

      .st191 {
        fill: #594229;
      }

      .st192 {
        fill: #a73322;
      }

      .st193 {
        fill: #899a9b;
      }

      .st194 {
        fill: #8a2620;
      }

      .st195 {
        fill: #212b35;
      }

      .st196 {
        fill: #912525;
      }

      .st197 {
        fill: #8e231d;
      }

      .st198 {
        fill: #fcc866;
      }

      .st199 {
        fill: #fec633;
      }

      .st200 {
        fill: #f2c77d;
      }

      .st201 {
        fill: #d86f26;
      }

      .st202 {
        fill: #991626;
      }

      .st203 {
        fill: #e4c466;
      }

      .st204 {
        fill: #5d636d;
      }

      .st205 {
        fill: #fcf58c;
      }

      .st206 {
        fill: #b54724;
      }

      .st207 {
        fill: #ba5f26;
      }

      .st208 {
        fill: #b63a14;
      }

      .st209 {
        fill: #de4829;
      }

      .st210 {
        fill: #de4928;
      }

      .st211 {
        fill: #8aa5aa;
      }

      .st212 {
        fill: #f9bf60;
      }

      .st213 {
        fill: #dc452a;
      }

      .st214 {
        fill: #0ebee4;
      }

      .st215 {
        fill: #879598;
      }

      .st216 {
        fill: #8e1f24;
      }

      .st217 {
        fill: #b95f26;
      }

      .st218 {
        fill: #cbc8c3;
      }

      .st219 {
        fill: #fefdfb;
      }

      .st220 {
        fill: #8a2f1a;
      }

      .st221 {
        fill: #1c242f;
      }

      .st222 {
        fill: #8a241d;
      }

      .st223 {
        fill: #e29a11;
      }

      .st224 {
        fill: #9e2c1f;
      }

      .st225 {
        fill: #b6c9cd;
      }

      .st226 {
        fill: #dfaa5b;
      }

      .st227 {
        fill: #bc5e28;
      }

      .st228 {
        fill: #fbbc33;
      }

      .st229 {
        fill: #972722;
      }

      .st230 {
        fill: #c04f27;
      }

      .st231 {
        fill: #812a17;
      }

      .st232 {
        fill: #e07f20;
      }

      .st233 {
        fill: #ea9634;
      }

      .st234 {
        fill: #f0bd64;
      }

      .st235 {
        fill: #b84b24;
      }

      .st236 {
        fill: #992d21;
      }

      .st237 {
        fill: #9c1b20;
      }

      .st238 {
        fill: #fecb42;
      }

      .st239 {
        fill: #f1bf67;
      }

      .st240 {
        fill: #bb2f23;
      }

      .st241 {
        fill: #9c2c1f;
      }

      .st242 {
        fill: #9b2c24;
      }

      .st243 {
        fill: #dfae6b;
      }

      .st244 {
        fill: #eb9020;
      }

      .st245 {
        fill: #c55019;
      }

      .st246 {
        fill: #8c241e;
      }

      .st247 {
        fill: #ad3f23;
      }

      .st248 {
        fill: #f1c06e;
      }

      .st249 {
        fill: #e0aa5b;
      }

      .st250 {
        fill: #8d201e;
      }

      .st251 {
        fill: #f1bf64;
      }

      .st252 {
        fill: #c05624;
      }

      .st253 {
        fill: #94291e;
      }

      .st254 {
        fill: #957348;
      }

      .st255 {
        fill: #c02f20;
      }

      .st256 {
        fill: #952420;
      }

      .st257 {
        fill: #ecc476;
      }

      .st258 {
        fill: #972d23;
      }

      .st259 {
        fill: #881c23;
      }

      .st260 {
        fill: #a43929;
      }

      .st261 {
        fill: #bd461b;
      }

      .st262 {
        fill: #962920;
      }

      .st263 {
        fill: #8c4d2d;
      }

      .st264 {
        fill: #503a2a;
      }

      .st265 {
        fill: #a73820;
      }

      .st266 {
        fill: #b75e27;
      }

      .st267 {
        fill: #de8a37;
      }

      .st268 {
        fill: #9e2920;
      }

      .st269 {
        fill: #dd7624;
      }

      .st270 {
        fill: #deab60;
      }

      .st271 {
        fill: #842d1b;
      }

      .st272 {
        fill: #80271a;
      }

      .st273 {
        fill: #f2c065;
      }

      .st274 {
        fill: #ae4321;
      }

      .st275 {
        fill: #912721;
      }

      .st276 {
        fill: #972824;
      }

      .st277 {
        fill: #15a7c5;
      }

      .st278 {
        fill: #696b70;
      }

      .st279 {
        fill: #9f3420;
      }

      .st280 {
        fill: #fabd4d;
      }

      .st281 {
        fill: #891d24;
      }

      .st282 {
        fill: #b5784b;
      }

      .st283 {
        fill: #87231e;
      }

      .st284 {
        fill: #e1ac5c;
      }

      .st285 {
        fill: #8e2922;
      }

      .st286 {
        fill: #f77e33;
      }

      .st287 {
        fill: #180905;
      }

      .st288 {
        fill: url(#linear-gradient);
      }

      .st289 {
        fill: #fdde88;
      }

      .st290 {
        fill: #321a14;
      }

      .st291 {
        fill: #587283;
      }

      .st292 {
        fill: #d2ac84;
      }

      .st293 {
        fill: #4c5eb6;
      }

      .st294 {
        fill: #a7b6b7;
      }

      .st295 {
        fill: #962f22;
      }

      .st296 {
        fill: #150905;
      }

      .st297 {
        fill: #942621;
      }

      .st298 {
        fill: #ba4b25;
      }

      .st299 {
        fill: #862d19;
      }

      .st300 {
        fill: #e79946;
      }

      .st301 {
        fill: #8c1e17;
      }

      .st302 {
        fill: #090201;
      }

      .st303 {
        fill: #832424;
      }

      .st304 {
        fill: #e1bb95;
      }

      .st305 {
        fill: #4a362d;
      }

      .st306 {
        fill: #fdd043;
      }

      .st307 {
        fill: #8b2125;
      }

      .st308 {
        fill: #f6ab2c;
      }

      .st309 {
        fill: #df8d39;
      }

      .st310 {
        fill: #ccdfe1;
      }

      .st311 {
        fill: #e49840;
      }

      .st312 {
        fill: #b34529;
      }

      .st313 {
        fill: #912a21;
      }

      .st314 {
        fill: #7e9698;
      }
    </style>
    <linearGradient id="linear-gradient" x1="56.48" y1="51.65" x2="74.1" y2="116.18" gradientUnits="userSpaceOnUse">
      <stop offset=".1" stop-color="#f9a720"/>
      <stop offset="1" stop-color="#eb7e1d"/>
    </linearGradient>
    <linearGradient id="linear-gradient1" x1="37.97" y1="-3.49" x2="68.86" y2="20.24" gradientUnits="userSpaceOnUse">
      <stop offset="0" stop-color="#fcc664"/>
      <stop offset="1" stop-color="#f0ab52"/>
    </linearGradient>
  </defs>
  <path class="st14" d="M20,30s30.95-.06,40,0c-.11,8.74.18,61.39,0,90-.07-.39,0,1.25,15,38.75l14.84-38.75v-52.57h27.07l16.84-24.93-43.91.57c0-12.68.16-13.07.16-13.07h50l19.24-27.5c-2.82,0-115.67-.02-115.67-.02l-42.32.03,18.75,27.48Z"/>
  <path class="st14" d="M91.28,40.21"/>
  <path class="st14" d="M109.81,24.4"/>
  <line class="st14" x1="89.84" y1="67.43" x2="116.91" y2="67.43"/>
  <path class="st14" d="M60,120s5-2.5,10,3.75c1.25-3.75,8.75-5,10,0,5-7.5,10-3.75,10-3.75"/>
  <path class="st14" d="M71.25,150s3.75-3.75,7.5,0"/>
  <line class="st14" x1="70" y1="123.75" x2="70" y2="30"/>
  <line class="st14" x1="80" y1="123.75" x2="80" y2="30"/>
  <line class="st14" x1="60" y1="30" x2="90" y2="30"/>
  <line class="st14" x1="123.75" y1="42.5" x2="106.25" y2="67.5"/>
  <g id="Generative_Object">
    <g>
      <g>
        <path class="st125" d="M2.75,4.98c.63.77,1.23,1.81,1.84,2.65,5.21,7.22,9.95,14.82,15.19,22.03h120.12c5.1-7.24,10.06-14.6,15.19-21.82.65-.91,1.48-2.33,2.24-3.06.05-.04.42-.33.41,0-5.67,8.62-11.87,16.93-17.64,25.49h-49.97l-.1,12.13c.15.21,1.3.07,1.63.1v.41c-.45.01-1.62-.17-1.84.31-.03.64.04,1.3,0,1.94-.03.47.02.96,0,1.43-.23,6.81.17,13.68,0,20.5l16.01.31c5.02-6.92,10.15-13.82,14.79-21.01.27-.42.54-.78.82-1.22.41-.67,1.96-1.78.61-2.04v-.41c3.89.03,7.83-.25,11.73-.2.17.1.09.33.1.51.07,1.52-15.59,21.82-17.23,24.98l-26.61.1v52.41l-15.4,39.06-15.19-38.85V30.37l-39.87-.1L1.94,4.37c.13.15.7.47.82.61Z"/>
        <g>
          <g>
            <path class="st189" d="M131.44,43.12l-1.02.51c-1.81,2.45-13.54,21.31-14.79,21.72-1.65.54-5.91-.56-7.85.2,4.72-7.62,10.81-14.94,15.81-22.43,2.6.12,5.26-.16,7.85,0Z"/>
            <path class="st62" d="M107.78,65.55c1.94-.76,6.2.34,7.85-.2,1.25-.41,12.98-19.27,14.79-21.72l1.02-.51c.5.03,1.02-.02,1.53,0l-16.52,24.07h-9.59c.08-.6.61-1.13.92-1.63Z"/>
          </g>
          <g>
            <path class="st40" d="M62.3,119.4l.2-75.15c-.37-.66-2.19,1.68-2.45,1.94.01-2.44-.03-4.9,0-7.34l2.45-1.73.31,6.42c.55-1.08,5.88-3.05,6.02-3.37.37-.89-.44-3.89.2-5,.54,29.05.02,58.13.2,87.19-2.24-1.22-4.29-2.74-6.93-2.96Z"/>
            <path class="st293" d="M86.37,37.41v81.78c-2.66.24-4.4,1.63-6.32,3.37l-.2-29.27c.02-9.99.07-19.99,0-29.98v-27.02c.46-1.03,5.67.71,6.53,1.12Z"/>
            <path class="st147" d="M86.37,119.19V37.41c1.24.59,2.34,1.33,3.06,2.55v79.33c-1.03.12-2.02-.2-3.06-.1Z"/>
            <path class="st10" d="M70.26,122.86l3.47,24.98,2.04.1c-.06.24.47.17-.2.61-1.37-.04-2.78.03-3.98.82l-.51-.51-11.01-28.14c1.31-1.82,5.01-.47,6.63.51.64.39,2.47,2.45,2.65,2.45.06,0,.72-.67.92-.82Z"/>
            <path class="st72" d="M62.3,119.4c-.84-.07-1.46.34-2.24.31.08-24.51-.11-49.02,0-73.52.25-.26,2.08-2.6,2.45-1.94l-.2,75.15Z"/>
            <path class="st154" d="M79.84,123.47c-1.81,7.95-2.15,16.59-4.08,24.47l-2.04-.1-3.47-24.98c.84-.61,1.51-1.61,2.75-1.84,2.4-.43,5.27.56,6.83,2.45Z"/>
            <path class="st304" d="M84.94,120.01l-8.16,28.76c-.36-.04-.67-.19-1.22-.2.67-.44.15-.37.2-.61,1.93-7.88,2.27-16.52,4.08-24.47,1.77-1.59,2.67-2.81,5.1-3.47Z"/>
            <path class="st292" d="M76.78,148.76l8.16-28.76c1.52-.41,3.05-.87,4.49.31l-11.32,28.86c-.52.03-.8-.35-1.33-.41Z"/>
            <path class="st55" d="M69.03,33.74c.02.5,0,.95,0,1.43-.64,1.11.17,4.11-.2,5-.13.32-5.47,2.29-6.02,3.37l-.31-6.42-2.45,1.73c0-.48,0-.95,0-1.43,2.29-2.65,5.53-3.57,8.97-3.67Z"/>
            <path class="st178" d="M69.03,33.74c-3.44.1-6.68,1.02-8.97,3.67.03-2.44-.11-4.9.1-7.34h8.77c.74.33.08,3.02.1,3.67Z"/>
            <path class="st54" d="M73.42,148.97c.65-.11,4.16,0,4.38.71.28.88-2.75,6.7-2.96,8.06-.55-1.36-3.12-6.35-3.16-7.44-.03-.99.89-1.18,1.73-1.33Z"/>
            <path class="st182" d="M88,30.27c-.3,0-1.5-.09-1.63.1.16,1.57-.4,3.41.41,4.79-.91-.4-1.78-.77-2.75-1.02-.87-.22-3.29-.1-3.77-.41-.63-.4-.59-3.46-.1-3.67.82-.36,6.55.12,7.85.2Z"/>
            <g>
              <path class="st15" d="M77.39,36.19l.2,84.84c-1.44-.28-3.91-.72-5.3-.41l-.2-83.41s.38-.4.41-.41c1.75-.82,3.09-.73,4.89-.61Z"/>
              <path class="st87" d="M72.3,120.62c-.72.16-1.8,1.62-2.65,1.73.2-27.77-.27-55.55,0-83.31,1.01-.45,1.42-1.25,2.45-1.84l.2,83.41Z"/>
              <path class="st123" d="M79.64,36.19c.3,8.98.14,18.13.2,27.12.07,9.99.02,19.99,0,29.98s.26,19.56-.31,29.16l-1.94-1.43-.2-84.84c.74.05,1.5-.03,2.24,0Z"/>
              <path class="st44" d="M79.64,36.19c-.74-.03-1.5.05-2.24,0-1.81-.12-3.15-.21-4.89.61l-.2-6.53c2.34-.09,4.68-.35,7.04-.2.12,2.03.24,4.08.31,6.12Z"/>
              <path class="st17" d="M72.3,30.27l.2,6.53s-.38.39-.41.41c-1.02.58-1.44,1.38-2.45,1.84.03-2.96-.06-5.91,0-8.87.3-.42,2.31.12,2.65.1Z"/>
            </g>
            <path class="st11" d="M88,30.27c.3,0,1.5-.09,1.63.1-.23.78.14,5.84,0,6.12-.11.21-.51.04-.61.1-.52-.77-1.44-1.08-2.24-1.43-.81-1.38-.25-3.23-.41-4.79.14-.19,1.33-.1,1.63-.1Z"/>
            <path class="st135" d="M86.78,35.17c.8.35,1.73.66,2.24,1.43-.1.06-.58-.03-.61.41-2.02-1.56-6.01-2.72-8.57-2.24-.18-.45.07-.76.41-1.02.48.31,2.91.19,3.77.41.98.25,1.84.62,2.75,1.02Z"/>
            <path class="st115" d="M88.41,37c.11.09,1.2,1.1.51,1.02-.84-2.02-8.87-2.76-9.08-3.26,2.55-.47,6.55.69,8.57,2.24Z"/>
          </g>
        </g>
      </g>
      <g>
        <path class="st291" d="M122.06,42.71v.41c-.68-.13-1.87.03-2.65,0-9-.3-18.31-.21-27.33-.2-.13,0-.27,0-.41,0v-.41c9.28.75,20.82.13,30.39.2Z"/>
        <path class="st126" d="M96.97,46.59c7.88.02,15.79.15,23.66-.2-4.63,7.19-9.76,14.09-14.79,21.01l-16.01-.31c.17-6.82-.23-13.68,0-20.5.75.21,1.86-.2,2.45-.2,1.52,0,3.13.2,4.69.2Z"/>
        <path class="st3" d="M119.41,43.12l-1.02,2.04c-7.13.03-14.29-.16-21.41,0-1.44.03-5.38-.69-4.69,1.22-.58,0-1.7.42-2.45.2.02-.47-.03-.96,0-1.43.39-.08,1.98.12,2.14,0,.25-.18.03-1.82.1-2.24,9.02,0,18.33-.09,27.33.2Z"/>
        <path class="st109" d="M121.45,45.16c-.27.45-.55.8-.82,1.22-7.87.35-15.78.22-23.66.2v-1.43c7.12-.16,14.29.03,21.41,0,1.02,0,2.05-.03,3.06,0Z"/>
        <path class="st214" d="M122.06,43.12c1.35.26-.21,1.37-.61,2.04-1-.03-2.04,0-3.06,0l1.02-2.04c.78.03,1.97-.13,2.65,0Z"/>
        <path class="st277" d="M91.67,42.92c.13,0,.27,0,.41,0-.08.42.15,2.07-.1,2.24-.16.12-1.75-.08-2.14,0,.04-.64-.03-1.29,0-1.94.21-.48,1.39-.3,1.84-.31Z"/>
        <path class="st34" d="M96.97,45.16v1.43c-1.56,0-3.17-.2-4.69-.2-.69-1.91,3.25-1.19,4.69-1.22Z"/>
      </g>
    </g>
    <g>
      <path class="st181" d="M157.75,4.78c.01-.33-.36-.04-.41,0l-2.75-1.63L5.81,3.35c-.65-.02-2.51.84-3.06,1.63-.12-.14-.69-.46-.82-.61-.17-.2-1.09-1.05-1.12-1.22l.2-.41h157.85l.2.41c-.49.48-.95,1.06-1.33,1.63Z"/>
      <path class="st43" d="M7.03,5.19c-.04.24.2.19.2.2.48.93,4.76,7.78,5.2,7.95.87.34,4.24-.26,5.4,0v.2c-.92.65-3.47.31-4.59.41-1.84.95,4.41.64,4.69.61.64-.06,8.88-1.75,8.87-.92l-12.54,1.53c-.81,1.1,1.91.84,2.45.82,2.92-.15,6.26-1.32,9.28-1.12l-10.71,1.94c-.29.25.05.38.1.61.14.62.68.8.82,1.02.27.44.51.81.82,1.22.49.66.55.97,1.22,1.63.05.05.09.81.71.82l8.97-3.67-8.77,3.87c-.01,2.02,1.31.59,2.24.41,23.37-4.59,49.89-1.39,73.62-.61l33.34-.41c.28.28.76.5,1.02.82-28.41,1.66-57.41-1.52-85.76-1.22-5.06.05-14.84.39-19.58,1.43-1.27.28-2.63,1.14-3.98,1.33l1.94,2.55h115.84l1.84-2.45-.2-.41c-4.21-.02-8.45.89-12.64,1.02-25.85.79-52.09-2.48-77.91-.41-5.84.47-11.65,2.33-17.54,1.63-.16-.72,1.81-.74,2.45-.82,33.17-3.86,66.46-.22,99.73-1.84,1.11-.05,6.16.3,6.53.2.14-.04,1.32-1.89,1.43-2.24-2.92.48-5.95.37-8.87.61.02-.28.79-.96.82-1.02,1.92-.34,6.89.29,8.46-.2.42-.13.87-1.28,1.33-1.53l-9.59-.51s-.35-.71-.41-.82c2.44-.42,8.49,1.05,10.5.41.19-.06.5-.8.71-1.02.24-.25.4-.55.61-.82,2.02-2.54,4.15-5.54,5.91-8.26.54-.84.91-1.89,1.43-2.75h.61l2.04,2.45c-5.13,7.22-10.09,14.58-15.19,21.82H19.78c-5.24-7.21-9.98-14.8-15.19-22.03.41-.23,1.7-2.39,1.84-2.45.12-.05.43.03.61,0Z"/>
      <path class="st68" d="M157.34,4.78c-.76.73-1.59,2.15-2.24,3.06l-2.04-2.45-146.02-.2c-.19.03-.5-.05-.61,0l-.61-1.84,148.78-.2,2.75,1.63Z"/>
      <path class="st203" d="M5.81,3.35l.61,1.84c-.14.06-1.42,2.21-1.84,2.45-.61-.84-1.21-1.88-1.84-2.65.55-.79,2.41-1.66,3.06-1.63Z"/>
      <path class="st254" d="M153.06,5.39h-.61c-1.93,0-1.01,1.34-1.73,2.65l-.31-2.35c-2.41-1.37-.33,3.37-1.73,3.98-.98-.23.79-5.19-1.53-4.18l-.31,3.98-.31-3.98-.1,4.18c-1-1.14.7-4.62-1.22-4.28-.21,2.04-.49,4.08-.71,6.12h-.2c-.11-1.02-.06-5.94-.31-6.12-1.73-1.23-.89,3.33-1.22,4.08l-.31-3.98-.31,3.98-.31-3.98c-2.25-.99-.59,3.96-1.53,4.18-1.14-.56-.15-3.21-.51-3.98-2.28-1.35-.44,3.09-1.53,3.98-1.2.28.37-4.83-1.43-4.28-.31.15-.47,3.48-.51,4.08h-.41c-.03-.61-.04-3.9-.51-4.08-1.57-.6.04,4.26-1.22,4.28-1.08.02-.14-3.93-.61-4.28-1.76-1.33-.72,3.81-1.43,4.28-.95.25-.31-3.52-.51-3.98s-1.28-.43-1.43,0c-.07.2.77,4.26-.31,3.98l-.51-4.18-1.53-.1c.67,1.35.16,2.72.1,4.08h-.41c-.06-.75-.17-3.27-.41-3.67.04-.65-.64-.58-1.02,0-.5.78-.05,2.72-.2,3.67-.08.08-.53.34-.61.1l-.31-4.18-.92.1c.33,5.77-1.1,4.86-1.12-.1-2.29-.82-.51,3.52-1.22,4.08-1.49,1.16.26-4.67-2.04-4.08-.32.08.42,5.7-.1,6.53l-.41-.2c-.17-.91-.11-6.24-.51-6.32-1.86-.39-.75,3.68-1.22,4.08-.85.7-.4-3.52-.51-3.77-.2-.45-1.28-.43-1.43,0-.08.22.68,3.66-.1,3.98-1.67.68.5-5.31-1.94-4.18l-.31,3.98-.31-3.98-.1,4.18c-.82-.62.44-5.08-1.22-4.28-.62,2.07-.13,4.14-.51,6.32h-.41c-.07-.96.27-6.05-.31-6.32-1.91-.13-.23,3.18-1.22,4.28-1.08.29-.02-3.9-.82-4.28-1.96-.95-.71,3.89-1.22,4.28-1.19.92-.54-3.62-.71-3.98-2.41-1.37-.33,3.37-1.73,3.98-.73-.17.37-5.64-1.43-4.28-.26.2-.18,5.57-.31,6.53h-.41c-.4-2.25.12-4.38-.51-6.53l-.92.1c-.13.65.3,3.99-.31,4.18-1.15.36.03-3.87-.82-4.28-1.94-.94-.25,3.43-1.22,4.28l-.71-.31v-3.87c-2.34-1.32-.37,5.4-1.94,4.18-.58-.45.77-4.69-1.02-4.28-.31.15-.47,3.67-.51,4.28l-.61-.2c-.04-.6.17-3.98-.31-4.08l-.92.1c-.09.65.24,3.94-.31,4.18-1.59.69.27-5.24-1.63-4.28-.65.33-.05,4-.41,4.28-1.57,1.22.41-5.5-1.94-4.18v3.87l-.71.31c-.89-.78.47-4.85-1.02-4.28-.48.18-.31,6.79-1.02,7.75-.44-1.1.19-6.99-.1-7.44s-1.23-.46-1.43,0c-.1.23-.08,6.34-.82,3.16.78-.11.46-2.18,0-2.86-.32-.46-.13-.91-1.22-.51-.24.33.48,4.44-.51,4.18-.93-.94.67-4.94-1.43-4.28-.35.11.13,3.71-.61,4.28-.95.23-.3-3.88-.51-4.18l-.92-.1c-.53.25-.27,3.19-.31,3.87h-.61c-.04-.57.1-3.42,0-3.57-1.74-2.57-.8,4.33-1.73,3.98-.66-.18.36-6.16-1.73-4.08-.49.49-.06,3.28-.2,4.08-1.27-.11-.21-3.9-.71-4.28-1.8-1.36-.7,4.11-1.43,4.28-1.22-.37.42-5.78-1.73-4.18-.43.32.54,2.56-.41,2.96-.03-.57.21-2.54-.41-2.86-.46-.24-.94-.33-1.43-.1l-.31,4.18c-.92.22-.33-3.58-.51-3.98-.15-.32-1.29-.36-1.33-.31-.39.55.37,4.54-.61,4.28-.78-.86.02-3.24-.31-3.98-.2-.45-1.27-.44-1.43,0-.08.22.91,4.99-.71,3.77-.43-.32.63-5.14-1.22-4.08-.2.12-.05,3.88-.1,4.69h-.41c-.04-.66-.11-4.55-.31-4.69-1.83-1.3-.81,3.76-1.22,4.08-1.55,1.2.38-5.28-1.94-3.98.46,4.93-1.43,5.91-1.02.2-2.32-1.79-.37,4.99-1.94,3.77-.53-.41.71-4.7-1.22-4.08-.41.2-.47,5.62-.51,6.53h-.41c-.06-.93-.12-6.34-.51-6.53l-.92.31c.11,6.12-.78,4.28-1.12-.31l-.92.1-.31,4.18c-.72.17-.74-3.71-.71-4.18-2.49-.74-.28,3.37-1.73,4.18-.94-.22.62-4.74-1.22-4.28-.28.13-.69,5.35-.71,6.12-.02.54.18,1.42-.2,1.84-.17-.01-.38-.48-.41-.61,0-.05.23-.48.2-1.02-.04-.95.25-6.05-.31-6.32-1.82-.88-.83,3.26-1.22,4.08l-.1-3.57c-.91-.06-.08,3.57-.51,3.57-.53-1.18.85-4.71-1.33-3.98-.35.5.61,3.74-.51,4.18-.68-.16-.07-3.44-.31-3.98-.2-.44-1.23-.44-1.43,0-.12.27.38,4.9-.71,3.98-.58-.49.78-4.68-1.02-4.28-.34.16-.46,3.58-.51,4.28l-.41-.41c-.04-.6-.01-3.64-.51-3.87-1.71-.59-.52,4.08-1.02,4.08l-.1-3.37c-.91-.09-.09,3.37-.51,3.37-.38-.83.17-3.16-.1-3.77-.18-.41-1.28-.41-1.43-.2-.29.41.43,3.5-.31,4.18-1.31.35.62-5.31-1.73-4.18-.24.33.48,4.44-.51,4.18l-.51-4.18c-2.58-.69-.28,4.55-1.63,5.81-.03-.52.23-1.34-.41-1.22-.04-.77.24-4.43-.31-4.69-1.48-.71-.3,3.29-.82,4.08-1.77.78-.46-3.68-1.02-4.08-1.77-1.26-.9,3.43-1.12,3.98-.96,2.34-1.29-3.68-1.02-3.87l-.92-.1c-.65.17.11,5.35-.92,4.08-.15-.92.3-2.93-.2-3.67-.41-.6-.92-.49-1.63-.31,1.05,1.21.12,3.31,0,4.49-.11,1.04.36,3.03-.41,3.57v-.2l-.31-7.95c-1.65-.79-.42,3.48-1.22,4.08-1.29.34.59-5.38-1.73-3.77-.16.35.47,4.69-.71,3.77-.6-.47.87-4.69-1.22-4.08-.75.36.35,3.99-1.02,4.28.38-5.04-1.79-6.49-1.63-.41-.43-3.12,1.07-4.05-2.75-3.87,0-.01-.24.03-.2-.2l146.02.2Z"/>
      <path class="st273" d="M135.93,9.47c.07,1.29-.3,2.9.31,4.08.25-1.34,0-2.73.1-4.08.04-.6.2-3.93.51-4.08,1.79-.55.23,4.57,1.43,4.28,1.09-.89-.75-5.33,1.53-3.98.36.77-.63,3.41.51,3.98.94-.22-.72-5.17,1.53-4.18l.31,3.98.31-3.98.31,3.98c.33-.75-.5-5.31,1.22-4.08.25.18.19,5.1.31,6.12.03.26-.09,1.63.1,1.63.23-.5.04-1.11.1-1.63.23-2.04.5-4.08.71-6.12,1.93-.34.23,3.14,1.22,4.28l.1-4.18.31,3.98.31-3.98c2.31-1.01.55,3.95,1.53,4.18,1.4-.6-.68-5.35,1.73-3.98l.31,2.35c.73-1.32-.2-2.65,1.73-2.65-.51.86-.89,1.92-1.43,2.75-1.77,2.72-3.89,5.72-5.91,8.26-2.13-.67-4.59-.89-7.04-1.02-.23-.85-.69-.12-1.22-.2-.07-.01-1.16-.6-1.22-.61-.4-.07-2.05.07-2.45,0-.12-.02-1.72-.59-1.84-.61-1.08-.19-2.39.08-3.37-.61.04-1.29-.05-2.59,0-3.87.05-1.35.57-2.73-.1-4.08l1.53.1.51,4.18c1.08.29.24-3.78.31-3.98.15-.43,1.23-.45,1.43,0s-.44,4.23.51,3.98c.7-.47-.33-5.61,1.43-4.28.47.36-.47,4.31.61,4.28,1.26-.03-.34-4.88,1.22-4.28.47.18.48,3.47.51,4.08Z"/>
      <path class="st161" d="M128.79,16.81c-1.15,1.33-1.83,2.35-1.02,4.08l-.71-1.02c-25.19-.58-50.39-1.14-75.46-3.67-11.88-.23-23.7.22-35.38,2.24-.13-.22-.68-.4-.82-1.02,4.94-.31,9.86-1.49,14.79-1.84,14.46-1.02,29.09.95,43.24,1.63,5.28.25,10.63-.23,15.91,0,10.98.49,20.04,1.99,31,1.43,1.1-.06,6.51.2,6.93,0,.06-.03.28-.77.2-.82-.41-.23-7.96-.44-9.38-.61-4.35-.54-9.82-1.23-14.07-2.04-.07-.01-1-.3-.61-.61,1.27,0,2.51.5,3.67.61,2.36.23,4.94.58,6.93.82.6.07,1.52-.06,2.04,0,2.95.33,6.93,1.28,9.79,1.43,1.88.1,1.79-.38,2.96-.61Z"/>
      <path class="st143" d="M17.84,13.34c-1.17-.26-4.53.34-5.4,0-.44-.17-4.72-7.03-5.2-7.95,3.82-.17,2.32.76,2.75,3.87-.16-6.08,2.01-4.64,1.63.41,1.37-.3.27-3.92,1.02-4.28,2.1-.61.62,3.61,1.22,4.08,1.18.92.55-3.43.71-3.77,2.32-1.61.44,4.12,1.73,3.77.81-.6-.42-4.86,1.22-4.08l.31,7.95Z"/>
      <path class="st284" d="M127.57,9.47c.11,1.31-.08,2.66,0,3.98.08.26.29-.18.41-.1.97.69,2.29.42,3.37.61.12.02,1.72.59,1.84.61.4.07,2.04-.07,2.45,0,.07.01,1.16.6,1.22.61.53.08,1-.65,1.22.2,2.44.13,4.91.35,7.04,1.02-.21.27-.37.56-.61.82l-25.09-4.08c0-.18.17-.2.2-.41,2.58-.08,4.92.61,7.24.41l.31-7.34c.24.4.35,2.92.41,3.67Z"/>
      <path class="st248" d="M133.48,20.89c.17-.46.29-1.77.2-2.24l9.59.51c-.45.25-.91,1.4-1.33,1.53-1.57.49-6.55-.14-8.46.2Z"/>
      <path class="st118" d="M18.25,21.3c-.68-.66-.74-.97-1.22-1.63,3.38-1.67,7.25-2.34,11.01-2.14l-9.79,3.77Z"/>
      <path class="st99" d="M44.76,13.55c-.35-.02-1.05.16-1.22-.2.38-.42.19-1.29.2-1.84.91.73,7.31.62,7.55.92.12.15-.15,1.04-.31,1.12-.28.14-5.46.03-6.22,0Z"/>
      <path class="st91" d="M43.34,11.71c.03.54-.21.97-.2,1.02l-7.75-.41c.02-.27-.01-.55,0-.82l7.95.2Z"/>
      <g>
        <path class="st239" d="M19.88,5.8c.15.84-.29,3.06.2,3.67,1.03,1.27.27-3.91.92-4.08l.92.1c-.27.19.06,6.21,1.02,3.87.22-.55-.65-5.24,1.12-3.98.56.4-.75,4.85,1.02,4.08.51-.79-.67-4.79.82-4.08.54.26.27,3.92.31,4.69.05.99.27,1.95.2,2.96.53-.07.23-1.39.2-1.73,1.35-1.26-.95-6.5,1.63-5.81l.51,4.18c.99.26.27-3.85.51-4.18,2.36-1.13.42,4.53,1.73,4.18.74-.68.02-3.77.31-4.18.14-.2,1.25-.21,1.43.2.27.61-.28,2.94.1,3.77.42,0-.4-3.45.51-3.37l.1,3.37c.5,0-.69-4.67,1.02-4.08.5.24.47,3.27.51,3.87.09,1.52-.07,3.07,0,4.59.66-.02.38-1.11.41-1.53l7.75.41c.02.13.24.6.41.61.18.37.87.19,1.22.2l-.82.71c7.7.45,15.77.66,23.66.92,6.27.21,12.6.08,18.86.41,7.28.38,14.51,1.56,21.82,1.63-3.46-1.42-7.86-1.71-11.62-2.04-6.65-.59-21.52-1.68-27.63-.61.03-.33-.04-.7,0-1.02.19-1.4.23-2.67.2-4.08,0-.34.02-.68,0-1.02.95-.4-.02-2.64.41-2.96,2.16-1.6.51,3.81,1.73,4.18.73-.17-.37-5.64,1.43-4.28.51.38-.56,4.18.71,4.28l.2-4.08c2.1-2.08,1.07,3.9,1.73,4.08.94.35,0-6.55,1.73-3.98.1.15-.04,3,0,3.57.09,1.42.27,2.86.31,4.28.48-1.39.24-2.85.31-4.28.03-.69-.23-3.63.31-3.87l.92.1c.21.3-.44,4.41.51,4.18.74-.58.26-4.17.61-4.28,2.09-.66.5,3.35,1.43,4.28.99.26.27-3.85.51-4.18,1.09-.4.91.05,1.22.51.13.82-.17,2.11,0,2.86.74,3.18.71-2.93.82-3.16.2-.46,1.14-.44,1.43,0s-.34,6.34.1,7.44c.71-.96.53-7.56,1.02-7.75,1.49-.57.13,3.51,1.02,4.28l.71-.31v-3.87c2.34-1.32.37,5.4,1.94,4.18.36-.28-.24-3.96.41-4.28,1.9-.96.04,4.97,1.63,4.28.55-.24.21-3.53.31-4.18l.92-.1c.48.1.27,3.48.31,4.08.09,1.42.26,2.85.31,4.28.61-1.18.22-2.78.31-4.08.04-.62.2-4.14.51-4.28,1.79-.41.44,3.84,1.02,4.28,1.57,1.22-.41-5.5,1.94-4.18v3.87l.71.31c.98-.85-.72-5.22,1.22-4.28.85.41-.34,4.64.82,4.28.61-.19.18-3.53.31-4.18l.92-.1c.63,2.15.11,4.27.51,6.53.04.23-.1.99.1,1.02.11-.34.26-.67.31-1.02.13-.96.05-6.33.31-6.53,1.8-1.36.7,4.11,1.43,4.28,1.4-.6-.68-5.35,1.73-3.98.17.36-.48,4.9.71,3.98.51-.4-.74-5.23,1.22-4.28.8.39-.27,4.57.82,4.28.99-1.1-.69-4.41,1.22-4.28.57.27.24,5.36.31,6.32.03.35-.22,1.2.31,1.22.23-.35.04-.85.1-1.22.38-2.18-.11-4.25.51-6.32,1.67-.8.4,3.66,1.22,4.28l.1-4.18.31,3.98.31-3.98c2.43-1.13.26,4.86,1.94,4.18.78-.32.03-3.75.1-3.98.15-.43,1.23-.45,1.43,0,.11.25-.34,4.47.51,3.77.48-.39-.63-4.47,1.22-4.08.4.08.34,5.41.51,6.32.08.41-.21,1.16.2,1.43l25.09,4.08c-.22.22-.52.96-.71,1.02-2.01.64-8.06-.82-10.5-.41-1.09-1.94-2.87-1.34-4.49-1.02-1.16.23-1.08.71-2.96.61-2.86-.15-6.84-1.1-9.79-1.43-.52-.06-1.44.07-2.04,0-2-.23-4.58-.58-6.93-.82-1.17-.12-2.4-.62-3.67-.61-.39.31.54.6.61.61,4.25.81,9.73,1.5,14.07,2.04,1.42.18,8.97.38,9.38.61.08.04-.14.79-.2.82-.42.2-5.84-.06-6.93,0-10.96.57-20.02-.94-31-1.43-5.28-.23-10.63.25-15.91,0-14.15-.68-28.78-2.65-43.24-1.63-4.93.35-9.84,1.53-14.79,1.84-.05-.24-.39-.36-.1-.61l10.71-1.94c-3.02-.2-6.36.97-9.28,1.12-.53.03-3.26.28-2.45-.82l12.54-1.53c.01-.84-8.23.86-8.87.92-.28.03-6.53.34-4.69-.61,1.12-.1,3.67.24,4.59-.41.77-.54.3-2.53.41-3.57.12-1.17,1.05-3.27,0-4.49.71-.18,1.22-.29,1.63.31Z"/>
        <g>
          <path class="st124" d="M67.61,15.18c-.13-.52.95-.53,1.43-.61,6.11-1.06,20.98.02,27.63.61,3.76.33,8.17.62,11.62,2.04-7.31-.07-14.54-1.25-21.82-1.63-6.27-.33-12.59-.2-18.86-.41Z"/>
          <path class="st249" d="M103.19,12.32c4.57.79,9.37,1.37,13.87,1.84.6.67,2.69.44,3.67.61.08.01,1.35.6,1.43.61.25.04,1.98-.06,2.24,0,.17.04.03.37.2.41.47.12,1.04-.67,1.53.51l-22.74-3.16-.2-.82Z"/>
          <path class="st296" d="M94.53,9.67c-.08,1.3.31,2.9-.31,4.08-.04-1.43-.21-2.87-.31-4.28l.61.2Z"/>
          <path class="st51" d="M35.38,9.67c-.04.6.03,1.23,0,1.84-.01.27.02.55,0,.82-.03.42.26,1.51-.41,1.53-.07-1.52.09-3.07,0-4.59l.41.41Z"/>
          <path class="st103" d="M77.8,9.27c-.07,1.43.18,2.89-.31,4.28-.04-1.43-.21-2.87-.31-4.28h.61Z"/>
          <path class="st6" d="M83.31,8.86c-.17-.75.13-2.03,0-2.86.46.67.78,2.74,0,2.86Z"/>
          <path class="st37" d="M26.61,11.31c.02.34.33,1.66-.2,1.73.06-1-.16-1.96-.2-2.96.64-.11.38.71.41,1.22Z"/>
          <path class="st191" d="M73.52,9.67c.15-.8-.29-3.59.2-4.08l-.2,4.08Z"/>
          <path class="st264" d="M20.09,9.47c-.5-.61-.05-2.83-.2-3.67.5.74.05,2.75.2,3.67Z"/>
          <path class="st21" d="M119.61,11.92c-.02.26.04.56,0,.82-.03.2-.21.23-.2.41-.42-.26-.13-1.02-.2-1.43l.41.2Z"/>
          <path class="st33" d="M111.05,11.71c-.07.38.13.88-.1,1.22-.52-.03-.28-.87-.31-1.22h.41Z"/>
          <path class="st290" d="M102.89,11.92c-.05.35-.2.68-.31,1.02-.2-.03-.06-.78-.1-1.02h.41Z"/>
        </g>
      </g>
      <g>
        <path class="st200" d="M129.4,22.52c1.49-.09,2.44-.54,3.26-.61,2.93-.25,5.96-.14,8.87-.61-.11.36-1.29,2.2-1.43,2.24-.36.1-5.41-.26-6.53-.2-33.27,1.62-66.55-2.03-99.73,1.84-.64.07-2.61.1-2.45.82,5.89.69,11.7-1.16,17.54-1.63,25.81-2.07,52.06,1.19,77.91.41,4.19-.13,8.43-1.04,12.64-1.02l.2.41-1.84,2.45H22.02l-1.94-2.55c1.34-.18,2.71-1.05,3.98-1.33,4.74-1.04,14.52-1.38,19.58-1.43,28.35-.29,57.35,2.88,85.76,1.22Z"/>
        <path class="st105" d="M62.81,25.38c3.78-.14,10.76-.48,14.28,0,.34.05,1.71.12,1.53.71l-25.19.1c3.09-.34,6.26-.7,9.38-.82Z"/>
        <path class="st243" d="M105.85,25.38h10.2l.71.71c-2.81-.2-7.27.61-9.89.1-.2-.04,0-.52-.2-.61-.14-.06-1.12.65-.82-.2Z"/>
      </g>
      <g>
        <path class="st120" d="M127.77,20.89c.12.25.42.63.61.82l-33.34.41c-23.73-.77-50.25-3.98-73.62.61-.94.18-2.26,1.61-2.24-.41l8.77-3.87-8.97,3.67c-.62,0-.66-.77-.71-.82l9.79-3.77c-3.76-.2-7.64.48-11.01,2.14-.31-.42-.55-.78-.82-1.22,11.69-2.02,23.51-2.47,35.38-2.24,25.07,2.53,50.26,3.09,75.46,3.67l.71,1.02Z"/>
        <path class="st270" d="M37.73,17.83c8.15.12,16.34,0,24.47.41,3.05.15,8.19.24,11.01.82.07.01.83.28.71.51l-36.2-1.73Z"/>
        <path class="st56" d="M29.16,18.24c.26-.06.86-.03,1.12.1l-1.53.31c-.22-.1.38-.4.41-.41Z"/>
      </g>
      <path class="st82" d="M125.93,9.47c.49-.53.06-2.88.2-3.67.37-.58,1.06-.65,1.02,0l-.31,7.34c-2.32.2-4.66-.49-7.24-.41.04-.26-.02-.55,0-.82.53-.83-.21-6.44.1-6.53,2.3-.59.55,5.23,2.04,4.08.72-.56-1.07-4.9,1.22-4.08.02,4.96,1.45,5.87,1.12.1l.92-.1.31,4.18c.09.24.54-.02.61-.1Z"/>
      <path class="st251" d="M43.34,11.71l-7.95-.2c.03-.61-.04-1.23,0-1.84.05-.7.17-4.12.51-4.28,1.8-.4.44,3.79,1.02,4.28,1.1.92.6-3.71.71-3.98.2-.44,1.23-.44,1.43,0,.24.54-.38,3.82.31,3.98,1.12-.45.16-3.69.51-4.18,2.18-.73.79,2.8,1.33,3.98.43,0-.41-3.63.51-3.57l.1,3.57c.39-.82-.6-4.96,1.22-4.08.55.27.26,5.37.31,6.32Z"/>
      <path class="st302" d="M136.33,9.47c-.09,1.34.15,2.74-.1,4.08-.6-1.18-.23-2.78-.31-4.08h.41Z"/>
      <path class="st287" d="M127.97,9.47c-.05,1.28.04,2.59,0,3.87-.12-.08-.33.36-.41.1-.08-1.31.11-2.67,0-3.98h.41Z"/>
      <path class="st187" d="M125.93,9.47c.15-.95-.3-2.89.2-3.67-.15.79.28,3.14-.2,3.67Z"/>
      <path class="st47" d="M144.29,11.51h.2c-.06.52.12,1.13-.1,1.63-.19,0-.07-1.37-.1-1.63Z"/>
      <g>
        <path class="st172" d="M133.28,17.83c.06.1.4.77.41.82.09.47-.03,1.79-.2,2.24-.02.06-.8.74-.82,1.02-.83.07-1.78.53-3.26.61-.26-.31-.74-.53-1.02-.82-.19-.19-.5-.57-.61-.82-.81-1.72-.13-2.75,1.02-4.08,1.62-.32,3.4-.92,4.49,1.02Z"/>
        <path class="st4" d="M130.11,17.02c4.26-.65,3.43,6.56-.82,4.69-2.1-.93-1.3-4.37.82-4.69Z"/>
      </g>
      <g>
        <path class="st234" d="M51.9,11.92c.03.49-.25,1.62.31,1.84.2-.58.07-1.23.1-1.84.04-.91.1-6.33.51-6.53,1.93-.62.7,3.67,1.22,4.08,1.57,1.21-.39-5.57,1.94-3.77-.41,5.7,1.48,4.72,1.02-.2,2.32-1.31.39,5.18,1.94,3.98.41-.32-.61-5.38,1.22-4.08.19.14.27,4.03.31,4.69.06,1.15-.13,2.33.1,3.47.59-.96.24-2.37.31-3.47.05-.81-.1-4.57.1-4.69,1.85-1.06.79,3.76,1.22,4.08,1.62,1.22.64-3.56.71-3.77.16-.44,1.23-.45,1.43,0,.33.74-.47,3.12.31,3.98.99.26.22-3.74.61-4.28.04-.06,1.18-.02,1.33.31.18.39-.41,4.19.51,3.98l.31-4.18c.49-.22.97-.14,1.43.1,0,1.29,0,2.59,0,3.87s-.17,2.82.2,4.08c-.04.32.03.69,0,1.02-.47.08-1.56.09-1.43.61-7.88-.26-15.95-.46-23.66-.92l.82-.71c.76.03,5.95.14,6.22,0,.16-.08.43-.98.31-1.12-.24-.29-6.64-.19-7.55-.92.02-.77.44-5.99.71-6.12,1.85-.45.29,4.06,1.22,4.28,1.46-.81-.75-4.92,1.73-4.18-.03.47-.01,4.35.71,4.18l.31-4.18.92-.1c.34,4.59,1.23,6.43,1.12.31l.92-.31c.39.19.45,5.6.51,6.53Z"/>
        <g>
          <path class="st60" d="M69.24,9.47c.03,1.41-.01,2.68-.2,4.08-.37-1.25-.2-2.77-.2-4.08h.41Z"/>
          <path class="st305" d="M69.24,8.45c.02.34,0,.68,0,1.02h-.41c0-1.29,0-2.59,0-3.87.61.32.38,2.29.41,2.86Z"/>
          <path class="st127" d="M60.88,10.08c-.07,1.09.29,2.5-.31,3.47-.23-1.14-.04-2.32-.1-3.47h.41Z"/>
          <path class="st121" d="M52.31,11.92c-.03.6.1,1.25-.1,1.84-.56-.22-.27-1.35-.31-1.84h.41Z"/>
          <path class="st226" d="M52.62,12.32c1.28.58,6.08.01,6.93.41.28.13.44.76.31.92-.23.29-7.18-.08-7.34-.41-.06-.12-.03-.81.1-.92Z"/>
        </g>
      </g>
    </g>
  </g>
  <g id="Generative_Object1" data-name="Generative_Object">
    <g>
      <g>
        <path class="st255" d="M60.67,30.27c-.61-.09-.4.55-.41.92-.1,3.62,0,7.29,0,10.91,0,6.25,0,12.51,0,18.76-.8,11.41.02,24.68,0,36.3,0,6.43.22,12.95,0,19.37-.04,1.23-.34,2.45-.2,3.67-.1.05-.22.36-.61.2-.64-29.7.86-59.53,0-89.23-.01-.37.2-1.01-.41-.92.54,0,1.08,0,1.63,0Z"/>
        <path class="st80" d="M79.43,38.02c.09,6.31-.01,12.65,0,18.97-.91-.19.06,4.44-.82,3.57-.69-3.15-.57-7.73-2.35-9.89l-3.37,8.87h-.82v58.94c.22.59,1.63-.48,1.94-.51,2.14-.21,3.62.07,5.4,1.22-.01.81.27,2.3-.41,2.65-2.76-1.91-5.13-1.87-7.95,0l-.2-1.84V37.82c2.84-.31,5.79-.39,8.57.2Z"/>
        <path class="st30" d="M80.86,38.02c.27,28.27-.06,56.58-.2,84.84-.62.16-.62.11-.61-.61.22-28.07-.29-56.16,0-84.23.01-1.37-.27-6.62,0-7.44.11-.32.08-.44.51-.31.52.16.3,6.81.31,7.75Z"/>
        <path class="st93" d="M79.43,38.02c-2.78-.59-5.73-.52-8.57-.2-.16.02-.27.16-.61.2.02-2.47.13-4.99-.2-7.44.03-.1.66-.5.71-.51,1.87-.32,6.17.66,8.36.2.52.27.29,6.69.31,7.75Z"/>
        <path class="st112" d="M70.26,38.02c-.18,26.78,1.56,55.95-.2,82.39-.05.69-.1,1.61.2,2.24l-.61.1c-.03-4.93.04-9.86,0-14.79-.21-23.23.05-46.52-.2-69.75.31-.05.51-.16.82-.2Z"/>
        <path class="st245" d="M63.73,30.48l.31,4.69.31-4.69c1.19.04,2.58-.36,3.87-.2-.18.94-.42,7.33-.2,7.65.2.29,1.07-.15,1.22.31-.41.08-.8.1-1.22.2-.71.17-1.35.39-2.04.61-1.64.54-3.1,1.3-4.69,1.94l.2-10.5c.75,0,1.47-.02,2.24,0Z"/>
        <path class="st24" d="M88.82,41.49c.13,23.99.32,48,.2,71.99l-.82,3.16c.11-25.12-.14-50.24,0-75.36l.61.2Z"/>
        <path class="st190" d="M60.67,30.27c.46,0,.68.2.82.2l-.2,10.5c1.59-.63,3.05-1.4,4.69-1.94l-2.86,13.56c-.68.8-.74,2.61-1.84,2.96-.02-4.65.01-9.31,0-13.97l-1.02.51c0-3.63-.1-7.29,0-10.91.01-.37-.2-1.01.41-.92Z"/>
        <path class="st202" d="M80.05,38.02c-.29,28.07.22,56.16,0,84.23-.49.12-.68-.17-1.02-.41.68-.35.4-1.84.41-2.65.3-20.71.05-41.5,0-62.2-.01-6.32.09-12.65,0-18.97.19.04.42-.02.61,0Z"/>
        <path class="st110" d="M69.44,38.23c-.07.01-.14-.01-.2,0-.15-.45-1.02-.02-1.22-.31-.22-.31.02-6.71.2-7.65.29.03,1.07-.11,1.22.1.07,2.61-.03,5.24,0,7.85Z"/>
        <path class="st286" d="M70.87,120.01l.2,1.84c-.12.08-.48.57-.82.82-.31-.64-.25-1.55-.2-2.24l.82-.41Z"/>
        <path class="st232" d="M64.34,30.48l-.31,4.69-.31-4.69c.2,0,.39,0,.61,0Z"/>
        <path class="st205" d="M61.49,56.78c.04,13.03-.18,26.12-.2,39.16l-1.02,1.22c.02-11.62-.8-24.89,0-36.3.1-1.37.08-3.28,1.22-4.08Z"/>
        <path class="st306" d="M60.26,116.54c.22-6.42,0-12.94,0-19.37l1.02-1.22c-.01,6.9,0,13.8,0,20.7l-1.02-.1Z"/>
        <path class="st238" d="M61.28,55.56c0,.54.2.87.2,1.22-1.14.8-1.13,2.71-1.22,4.08,0-6.25,0-12.51,0-18.76l1.02-.51c.01,4.66-.02,9.32,0,13.97Z"/>
        <g>
          <path class="st237" d="M88.2,40.67c0,.2,0,.41,0,.61-.14,25.11.11,50.24,0,75.36l.82-3.16v5.4c-1.98-.26-3.91-.2-5.61.92-.96.63-2.16,2.91-2.75,3.06.14-28.27.47-56.57.2-84.84l7.34,2.65Z"/>
          <path class="st213" d="M83.82,93.49c1.1,6.45,1.02,13.05.82,19.58-1.09-6.42-.84-13.09-.82-19.58Z"/>
          <path class="st64" d="M86.06,97.98c.76,4.78.64,9.76-.41,14.48l.41-14.48Z"/>
          <path class="st210" d="M83.82,68.41c1,5.02.76,10.21.61,15.3-.34-5.08-.38-10.21-.61-15.3Z"/>
          <path class="st209" d="M84.23,45.16c.81,3.24.51,6.69.41,9.99-.99-3.19-.4-6.72-.41-9.99Z"/>
        </g>
        <path class="st29" d="M69.24,38.23c.07-.01.14.01.2,0,.26,23.23,0,46.52.2,69.75l-.41-12.95c-.95-.36-.28,1.01-.92,1.12l-.31-57.72c.42-.1.82-.13,1.22-.2Z"/>
        <g>
          <path class="st288" d="M68.01,38.43l.31,57.72c.63-.12-.03-1.48.92-1.12l.41,12.95c.04,4.92-.03,9.86,0,14.79l.61-.1c-.11.08-.57.82-.71.82-1.91-3.14-6.06-5.08-9.48-3.26-.14-1.22.16-2.44.2-3.67l1.02.1c0-6.9-.01-13.8,0-20.7.02-13.04.25-26.13.2-39.16,0-.35-.2-.68-.2-1.22,1.1-.35,1.15-2.16,1.84-2.96l2.86-13.56c.69-.23,1.33-.44,2.04-.61Z"/>
          <path class="st199" d="M64.55,80.65c.05-.64.29-3.25-.61-2.45.61-8.13,1.19-16.46,3.06-24.37.08,3.24.37,6.55.41,9.79.12,10.23.18,21.19,0,31.41-.09,5.28-.09,11.12-1.33,16.21-1.73-10.05-.96-20.43-1.53-30.59Z"/>
          <path class="st186" d="M64.55,80.65s-.4-.07-.41.1c-.64,10.44.63,21.33.2,31.82-.38.37-.56-.62-.61-.82-2.09-7.82-.41-25.45.2-33.55.9-.8.66,1.81.61,2.45Z"/>
        </g>
        <path class="st136" d="M70.87,120.01l-.82.41c1.76-26.44.02-55.61.2-82.39.35-.05.45-.19.61-.2v82.19Z"/>
        <g>
          <path class="st157" d="M158.77,2.94l-18.86,27.33h-49.76l-.1,12.24-.2.2c-.16.46.22.93.2,1.02-.42,2.75-.19,5.66-.2,8.57-.02,3.6,0,7.21,0,10.81,0,.2,0,.41,0,.61,0,.54,0,1.09,0,1.63,0,.27,0,.55,0,.82,0,.34,0,.68,0,1.02,0,.59.2.58.2.61-.02,17.43-.58,34.88,0,52.31l-15.09,38.95-.61-.2-14.89-38.44c.39.16.51-.15.61-.2,3.42-1.82,7.57.12,9.48,3.26.15,0,.61-.74.71-.82.34-.25.69-.73.82-.82,2.82-1.87,5.2-1.91,7.95,0,.34.23.53.53,1.02.41,0,.72-.01.77.61.61s1.79-2.43,2.75-3.06c1.7-1.11,3.63-1.18,5.61-.92v-5.4c.12-23.99-.07-48-.2-71.99-.01-2.07.71-9.47.2-10.91-.13-.38-.68-.38-.82,0-.32.93.01,8.41,0,10.1l-7.34-2.65c0-.94.21-7.59-.31-7.75-.43-.13-.4-.01-.51.31-.27.82.01,6.08,0,7.44-.2-.02-.42.04-.61,0-.02-1.06.21-7.48-.31-7.75-2.19.46-6.49-.53-8.36-.2-.05,0-.68.41-.71.51.33,2.46.22,4.97.2,7.44-.31.04-.51.15-.82.2-.03-2.61.07-5.24,0-7.85-.15-.21-.93-.07-1.22-.1-1.29-.15-2.69.24-3.87.2-.22,0-.41,0-.61,0-.78-.02-1.49,0-2.24,0-.14,0-.36-.2-.82-.2-.55,0-1.1,0-1.63,0-5.43-.04-10.88.02-16.32,0v-.82c32.29-.05,64.6.04,96.87,0,6.28-8.78,12.89-17.41,18.35-26.72.18-.04.8-.09.82.2Z"/>
          <g>
            <path class="st117" d="M64.95,120.62c.47.14.51.26.82.41,1.99,5.46,1.3,11.78,4.28,16.83-.67-4.22-1.14-7.7-1.02-12.03.01-.37-.2-1.01.41-.92.4,1.89.16,5.64.41,7.85.2,1.74.45,3.64,1.02,5.3.18-3.67-1.65-10.51-.82-13.87.09-.35.96-1.05,1.22-1.33l1.53,24.47c-4.32-6.77-5.71-14.38-7.85-21.92-.21-.74-2-4.62-1.33-4.79h1.33Z"/>
            <path class="st76" d="M75.56,121.23c.07.77-1,.12-1.22.71-.09.25.75,2.54.82,3.06.77,6.55.97,15.18.2,21.72l-.51,1.43-.92-.1c-.09-4.14-.22-8.32-.61-12.44-.23-2.39-1.81-10.14-1.43-11.83.22-.95,1.65-1.34,1.63-2.35.76-.19,1.25-.26,2.04-.2Z"/>
            <path class="st46" d="M64.95,120.62h-1.33c-.68.17,1.12,4.05,1.33,4.79,2.14,7.55,3.53,15.16,7.85,21.92l-1.53-24.47c.76-.8,1.12-1.14,2.24-1.43.02,1-1.42,1.4-1.63,2.35-.39,1.69,1.2,9.44,1.43,11.83.39,4.12.52,8.3.61,12.44l.92.1.51-1.43c-.06.52-.34,1.03-.2,1.63-1.14-.03-2.02.42-3.06.61l-10.81-28.55c1.15-.45,2.54-.13,3.67.2Z"/>
            <path class="st96" d="M69.44,124.9c-.61-.09-.4.55-.41.92-.13,4.33.35,7.81,1.02,12.03-2.98-5.05-2.29-11.37-4.28-16.83,1.21.59,3.4,2.6,3.67,3.87Z"/>
            <path class="st73" d="M72.09,148.97c-.51.1-.3.9-1.02-.31-2.31-3.87-8.52-21.01-9.99-25.9-.18-.6-.24-1.3-.61-1.84.03-.16.63-.44.82-.51l10.81,28.55Z"/>
            <path class="st257" d="M77.19,148.76c.03-.1.15-.35.2-.41,1.46-1.75,3.34-7.77,4.08-10.2l6.93-17.64c-.18-.49-1.83-.35-2.24-.31l-.2-.61c1.24-.25,2.27-.45,3.26.51l-11.32,29.27c-.12-.12-.67-.6-.71-.61Z"/>
            <path class="st282" d="M85.96,119.6l.2.61c-3.81.42-2.91,3.56-3.26,6.73-.66,1.8-1.51,3.67-2.04,5.51-.3-.34-.06-1.39,0-1.84.36-2.6,1.06-5.38.82-7.95,1.02-1.55,2.45-2.69,4.28-3.06Z"/>
            <path class="st168" d="M77.19,149.78l-.61,3.26c-.29.85-.6,2.35-1.43,2.86v-.41c.36-1.24-.18-3.08.41-4.38-.84.07-.75,1.79-.82,2.35-1.4-.5-.6-3.18-.82-4.28.76-.06,2.68.14,3.26.61Z"/>
            <path class="st240" d="M88.82,41.49l-.61-.2c0-.2,0-.41,0-.61.01-1.69-.32-9.16,0-10.1.13-.38.68-.38.82,0,.5,1.44-.22,8.84-.2,10.91Z"/>
            <path class="st278" d="M74.74,153.45c-.11.98-.46,1.92.1,2.86,0-.3.27-.7.31-.82v.41c0,.67.1,1-.51,1.43-.47,0-1.31-3.24-1.53-3.87.31-.91-.26-2.89-.82-3.67.25-.22,1.34-.59,1.63-.61.22,1.1-.58,3.78.82,4.28Z"/>
            <path class="st19" d="M80.86,130.61c.15-1.61-.39-5-.2-6.32.07-.54.73-1.19,1.02-1.63.24,2.58-.45,5.35-.82,7.95Z"/>
            <path class="st218" d="M73.11,153.45c-.34-.98-1.66-2.93-.82-3.67.56.78,1.13,2.76.82,3.67Z"/>
            <path class="st204" d="M76.58,153.05l.61-3.26c.64.52-.3,2.35-.61,3.26Z"/>
            <path class="st263" d="M81.47,138.16c-.74,2.43-2.62,8.44-4.08,10.2-.09-.41-.92-.56-1.02-.92-.21-.75,3.01-8.72,3.47-10.2s.57-3.25,1.02-4.79c.53-1.84,1.38-3.7,2.04-5.51-.25,2.26-.54,4.76-.61,7.04,0,.18.59.02.61.2.02.21-1.23,3.33-1.43,3.98Z"/>
            <g>
              <path class="st52" d="M80.66,124.29c-.18,1.32.35,4.71.2,6.32-.06.45-.3,1.49,0,1.84-.44,1.54-.54,3.27-1.02,4.79s-3.67,9.45-3.47,10.2c.1.36.93.5,1.02.92-.05.06-.18.3-.2.41-.49-.12-1.62-.4-2.04-.41-.14-.6.14-1.11.2-1.63.76-6.54.57-15.17-.2-21.72-.06-.52-.91-2.81-.82-3.06.22-.6,1.3.06,1.22-.71,2.58.18,3.35,1.51,5.1,3.06Z"/>
              <path class="st49" d="M77.09,122.45c2.45,1.16,2.3,1.73,2.35,4.18.02,1.18-1.66,16.88-2.75,16.62,1.01-6.83,2.32-14.03.41-20.8Z"/>
            </g>
            <path class="st132" d="M86.16,120.21c.41-.05,2.07-.18,2.24.31l-6.93,17.64c.2-.65,1.45-3.77,1.43-3.98-.02-.19-.62-.02-.61-.2.07-2.28.36-4.78.61-7.04.35-3.17-.55-6.31,3.26-6.73Z"/>
            <path class="st23" d="M75.15,155.49c-.03.12-.3.52-.31.82-.56-.93-.21-1.87-.1-2.86.06-.56-.03-2.27.82-2.35-.59,1.31-.05,3.14-.41,4.38Z"/>
          </g>
        </g>
        <g>
          <path class="st78" d="M79.43,56.99c.05,20.7.3,41.5,0,62.2-1.78-1.16-3.27-1.44-5.4-1.22-.3.03-1.71,1.1-1.94.51v-58.94h.82l3.37-8.87c1.78,2.16,1.65,6.74,2.35,9.89.87.87-.1-3.76.82-3.57Z"/>
          <path class="st104" d="M75.05,59.64c.25-.03.59.33.71.51,1.49,2.21,1.21,35.35,1.02,40.38-.05,1.27-.91,15.58-1.73,15.6-1.23-9.28-.54-18.7-.71-28.04-.11-5.74-.9-11.57-.82-17.34.02-1.51.19-10.94,1.53-11.11Z"/>
        </g>
      </g>
      <g>
        <path class="st8" d="M132.46,44.14c-4.16,8.08-11.03,15.71-15.6,23.66h-26.82s-.2-.03-.2-.61h15.4l.71-1.12-16.11.1c0-.27,0-.54,0-.82h17.03c.56-.29.81-1.09,1.12-1.43.33-.36.34-.53.41-.61,1.23-1.5,2.15-3.13,3.26-4.69,1.79-2.5,3.58-5,5.3-7.55l.41.41c-3.26,4.72-6.36,9.57-9.79,14.17.41.52.88.45,1.43.51-.29,1.44-2.49-.23-2.75.61-.2.1.14.39.2.41.45.16,9.14.17,9.59,0,.55-.2.1-.69.1-1.02,0-.2.31-.29.2-.61.14-.04.29-.13.41-.2l.61.92,15.09-22.13Z"/>
        <path class="st25" d="M132.46,44.14l-15.09,22.13-.61-.92c.16-.11,1.34-2.25,1.63-2.65l13.05-19.78-1.02-.41c.91.04,2.87-.39,2.86.71-.05.37-.78.85-.82.92Z"/>
        <path class="st179" d="M130.42,42.51l1.02.41c-2.65.23-6.03-.41-8.36.2-.23.06-.58.16-.82.2-.15-.52-.53-.38-.92-.41-7.89-.49-16.77.02-24.78,0-1.36,0-2.72.02-4.08,0-.89-.01-1.79.1-2.65-.2l.2-.2c13.41.45,26.98-.6,40.38,0Z"/>
        <path class="st20" d="M91.67,45.57c-.07.77.65,1.54.82,2.04,1.72,5.09,3.13,10.35,4.69,15.5-2.44,0-4.9,0-7.34,0,0-3.6-.02-7.21,0-10.81l1.02-6.63c.12-.21.59-.06.82-.1Z"/>
        <path class="st146" d="M100.85,63.72c2.36,0,4.8-.17,7.14.2-.31.34-.56,1.13-1.12,1.43h-17.03c0-.54,0-1.09,0-1.63,3.67,0,7.35,0,11.01,0Z"/>
        <path class="st310" d="M92.49,42.92c-.18.96,4.26.96,4.08,0,8.01.02,16.89-.49,24.78,0,.39.02.77-.12.92.41-.04,0-.33.55-.51.61l-31.71-.2c.01-.09-.36-.56-.2-1.02.87.31,1.76.19,2.65.2Z"/>
        <path class="st211" d="M89.84,67.19c0-.34,0-.68,0-1.02l16.11-.1-.71,1.12h-15.4Z"/>
        <path class="st107" d="M97.18,63.11c1.22,0,2.45,0,3.67,0v.61c-3.67,0-7.35,0-11.01,0,0-.2,0-.41,0-.61,2.44,0,4.9,0,7.34,0Z"/>
        <path class="st85" d="M131.44,42.92l-13.05,19.78-.61-.2c1.73-2.01,3.49-6.93,5.1-9.48,1.73-2.74,3.8-5.28,6.12-7.55.12-1.09-2.25-.72-2.86-.51-.13-.05-.58.09-.61-.1l1.94-1.12c-.85-.07-2.49-.44-3.26-.2-1.17.35-10.9,15.8-12.54,17.85,1.52.07,4.2-.03,5.2-.92-.5-.09-1.42.13-1.84,0-.26-.08.18-.29.1-.41,1.53.16,2.31-.23,2.86-1.63,1.91-1.49,2.63-4.41,4.08-6.42.48-.67,1.36-1.36,1.84-1.94-1.65,1.92-6.19,12.43-7.85,13.05-1.17.44-3.3-.1-4.59.61,0-.03-.49-.07.1-.61.06-.06,1.92-.09.82-.82-7.29,2.87.97,4.04,3.98,3.26.1.33-.2.41-.2.61-.92-.37-1.44.41-1.53.41-.15,0-.05-.41-.2-.41-1.68-.02-3.82.19-5.4,0-.55-.06-1.02.01-1.43-.51,3.43-4.61,6.53-9.45,9.79-14.17,1.91-2.77,4.05-5.42,5.71-8.36,2.33-.61,5.72.02,8.36-.2Z"/>
        <path class="st48" d="M107.78,46.59s-.07.11.2.2c.12.33.13.72.2,1.02.84,3.6,2.51,7.22,3.47,10.81-1.11,1.56-2.04,3.19-3.26,4.69-.25-.36-1.03-.2-1.43-.2l1.02-.31c-1.37-2.97-2.6-6.51-3.47-8.97-.56-1.59-.96-5.44-2.65-5.61-.13-.37-.28-.66-.41-1.02l6.32-.61Z"/>
        <path class="st165" d="M119.2,47.61c-.75,1.15-1.47,2.33-2.24,3.47-1.72,2.55-3.52,5.05-5.3,7.55-.96-3.59-2.63-7.21-3.47-10.81l11.01-.2Z"/>
        <path class="st193" d="M111.45,63.72c-.1.31-.65.17-.31.61,2.45-.39,4.94.14,6.63-1.84l.61.2c-.29.4-1.47,2.55-1.63,2.65-.11.07-.27.17-.41.2-3.01.78-11.27-.4-3.98-3.26,1.11.72-.75.76-.82.82-.59.54-.09.58-.1.61Z"/>
        <path class="st36" d="M116.14,66.17c0,.33.45.82-.1,1.02-.45.17-9.13.16-9.59,0-.06-.02-.4-.31-.2-.41.26-.85,2.46.82,2.75-.61,1.59.19,3.73-.02,5.4,0,.15,0,.05.41.2.41.09,0,.61-.77,1.53-.41Z"/>
        <path class="st12" d="M103.7,62.9c.96,0,2.05.2,3.06.2.07,0,.14,0,.2,0,.4,0,1.18-.16,1.43.2-.07.09-.08.26-.41.61-2.34-.37-4.78-.2-7.14-.2v-.61c.65,0,1.43-.2,1.84-.2.33,0,.69,0,1.02,0Z"/>
        <path class="st101" d="M97.18,47.61c.54.13,2.3,5.53,2.65,6.53,1.02,2.89,1.7,5.93,2.86,8.77-.4,0-1.19.2-1.84.2-1.22,0-2.45,0-3.67,0-1.56-5.15-2.97-10.41-4.69-15.5,1.1.59,4.03-.16,4.69,0Z"/>
        <path class="st225" d="M101.05,45.57c.05.55.23,1.12.41,1.63.13.36.28.65.41,1.02,1.7,4.93,3.37,9.89,4.89,14.89-1.01,0-2.1-.2-3.06-.2-.95-3.08-2.01-6.13-3.06-9.18-.35-1.01-2.11-7.43-2.45-7.65-.22-.14-1.08-.2-1.22,0l.2,1.53c-.66-.16-3.59.59-4.69,0-.17-.5-.88-1.27-.82-2.04,2.1-.39,6.96,0,9.38,0Z"/>
        <g>
          <path class="st128" d="M123.08,43.12c-1.66,2.94-3.8,5.59-5.71,8.36l-.41-.41c.77-1.14,1.49-2.31,2.24-3.47.14-.21.24-.33.41-.61.06-.09.9-.76.92-1.02l-.2-.41c-4.25.04-8.49.24-12.75.2-2.15-.02-4.35-.2-6.53-.2-2.42,0-7.28-.39-9.38,0-.22.04-.69-.1-.82.1l-1.02,6.63c.02-2.9-.22-5.81.2-8.57l31.71.2c.18-.06.47-.6.51-.61.23-.04.58-.14.82-.2Z"/>
          <path class="st2" d="M90.55,44.34c10.33.22,20.75-.24,31.1.31l-15.6.31-15.5-.61Z"/>
        </g>
        <path class="st38" d="M119.61,47c-2.69-.94-9.41.57-11.62-.2-.27-.1-.19-.18-.2-.2-.2-.2-.24-.54-.2-.82,4.26.03,8.49-.16,12.75-.2l.2.41c-.02.26-.86.93-.92,1.02Z"/>
        <path class="st294" d="M119.61,47c-.17.28-.27.4-.41.61l-11.01.2c-.07-.3-.09-.69-.2-1.02,2.22.77,8.93-.74,11.62.2Z"/>
        <path class="st162" d="M107.58,45.77c-.03.28,0,.61.2.82l-6.32.61c-.18-.51-.36-1.08-.41-1.63,2.18,0,4.37.19,6.53.2Z"/>
        <path class="st163" d="M126.14,44.96c.45.16,1.8.27,1.84.71-1.42,1.39-2.82,2.85-4.08,4.38-.47.58-1.36,1.27-1.84,1.94-1.45,2.01-2.17,4.93-4.08,6.42,1.68-4.36-3.64-1.11-3.26,1.53.03.17.39.07.41.1.08.12-.36.33-.1.41.42.13,1.33-.09,1.84,0-1,.89-3.68.99-5.2.92,1.64-2.05,11.37-17.49,12.54-17.85.77-.23,2.41.13,3.26.2l-1.94,1.12c.03.19.48.06.61.1Z"/>
        <path class="st195" d="M117.78,62.5c-1.69,1.97-4.18,1.44-6.63,1.84-.35-.44.2-.3.31-.61,1.29-.72,3.41-.17,4.59-.61,1.67-.62,6.2-11.13,7.85-13.05,1.25-1.54,2.66-2.99,4.08-4.38-.04-.44-1.39-.56-1.84-.71.61-.21,2.98-.59,2.86.51-2.32,2.26-4.39,4.8-6.12,7.55-1.61,2.55-3.37,7.47-5.1,9.48Z"/>
        <path class="st215" d="M106.97,63.11c-.07,0-.14,0-.2,0-1.52-4.99-3.2-9.95-4.89-14.89,1.69.17,2.09,4.02,2.65,5.61.87,2.46,2.09,6.01,3.47,8.97l-1.02.31Z"/>
        <path class="st95" d="M103.7,62.9c-.33,0-.69,0-1.02,0-1.16-2.84-1.84-5.88-2.86-8.77l.82-.41c1.04,3.05,2.11,6.1,3.06,9.18Z"/>
        <path class="st180" d="M100.64,53.73l-.82.41c-.35-1-2.11-6.4-2.65-6.53l-.2-1.53c.14-.2,1.01-.14,1.22,0,.34.22,2.1,6.63,2.45,7.65Z"/>
        <g>
          <path class="st221" d="M117.98,58.42c-.54,1.41-1.33,1.79-2.86,1.63-.02-.03-.38.07-.41-.1-.38-2.64,4.95-5.89,3.26-1.53Z"/>
          <path class="st314" d="M117.27,56.99c.78.88-.98,2.85-1.63,2.45-.47-.29,1.18-2.41,1.63-2.45Z"/>
        </g>
      </g>
    </g>
    <g>
      <path class="st223" d="M13.97,2.54v.61c-3.51-.18-7.09.05-10.61.1.51.5.55,1.55.61,1.63.24.32.49-.12.51-.1.71.89,1.73,1.9,2.35,2.75.18.25-.31.67-.2.82,1.82,2.51,3.87,4.91,5.71,7.44-.28.41.59,1.59.82,1.94,1,1.51,5.98,9.23,6.73,9.89l-.82.41c-2.46-3.45-4.93-6.91-7.34-10.4-2.68-3.87-5.38-8.48-8.16-12.13-.14-.18-.81-.97-.82-.1-.52-.84-1.64-1.73-1.73-2.86,4.31.27,8.63.04,12.95,0Z"/>
      <path class="st164" d="M35.38,29.46c2.44,0,4.9,0,7.34,0v.82c-7.68-.03-15.38.19-23.05-.2.02-.19.22-.38.41-.41,4.56-.65,10.57-.19,15.3-.2Z"/>
      <path class="st129" d="M11.72,17.63l-.61.41c-2.91-4.14-5.69-8.34-8.36-12.64,0-.87.68-.08.82.1,2.78,3.65,5.48,8.26,8.16,12.13Z"/>
      <path class="st140" d="M11.72,17.63c2.41,3.49,4.88,6.95,7.34,10.4.37.52.74,1.06,1.02,1.63-.18.03-.39.22-.41.41-2.92-3.96-5.74-8.01-8.57-12.03l.61-.41Z"/>
      <path class="st131" d="M81.07,22.11l.41.61c-3.68.31-7.64.43-11.11,1.22,2.88-.2,5.79-.21,8.67-.41l.2,2.86c-14.32,0-28.38-.32-42.42-.2,0-.2,0-.41,0-.61,14.69-1.89,29.5-2.16,44.26-3.47Z"/>
      <path class="st92" d="M139.19,28.03c-26.85-.04-53.71.05-80.56,0-10.53-.02-21.09.17-31.61,0-.09-.82.16-.55.71-.61,2-.22,4.39-.16,6.42-.2,35.01-.8,70.12.6,105.13,0,2.09-3.33,4.48-6.44,6.83-9.59l-6.93,10.4Z"/>
      <path class="st94" d="M141.23,22.73c.76.04.36.3.1.61-.85,1.04-1.69,2.12-2.65,3.06-6.01.06-12.05-.08-18.05,0,.34-.53,1.81.27,1.33-.82l-29.98-.61,27.33-1.22c2.68-.35,6.55-1.94,9.18-1.43,1.13.22,1.58,1.26,2.45,1.63,3.22,1.38,7.53.79,10.3-1.22Z"/>
      <path class="st90" d="M48.84,18.65v.61c-7.82,1.2-17.47,2.88-24.78,5.91-.07.03-.4.31-.2.41,6.86.08,13.4-2.4,20.09-3.47-.03.92,1.11,0,1.22.31.03.07-.21,1.23,0,1.53-2.53.28-5.15.44-7.44,1.22-.51.17-.96-.78-.92.41,0,.2,0,.41,0,.61-5.27.05-10.54.37-15.81.61-2.98-2.42,1.73-1.94,3.67-2.45,8.89-2.31,14.84-4.16,24.17-5.71Z"/>
      <path class="st50" d="M76.78,12.12c.17.65-.47.7-.92.82-10.17,2.68-20.64,1.02-30.59,2.86-7.59,1.4-16.84,6.33-23.45,7.34-1.18.18-4.05.79-3.87-1.02,3.32-.01,6.91-1.08,9.99-2.24.39-.15.98-.27.92-.82,2.03.13,2.86-.64,4.69-1.22,11.3-3.58,15.15-2.57,26.21-3.26,3.9-.24,7.75-1.56,11.52-2.04,1.79-.23,3.71-.35,5.51-.41Z"/>
      <path class="st259" d="M157.95,2.74c-5.47,9.31-12.08,17.94-18.35,26.72-.08-.54.29-1.53-.41-1.43l6.93-10.4c3.71-4.95,7.39-9.92,11.22-14.79.14-.2.42-.06.61-.1Z"/>
      <path class="st114" d="M121.85,11.71c.4.4.81.06,1.43.41-.58-.04-1.07.35-1.63.41-1.69.17-3.72-.2-5.51-.2-.77,0-1.34.19-2.04.2-2.56.04-4.36-.59-6.93.2.4-.59-.14-.4-.51-.41-4.53-.14-9.44-.12-13.97,0-2.86.08-4.91.02-7.75.41.08-1.06-.25-.4-.51-.41-2.49-.05-5.19-.29-7.65-.2-1.8.06-3.72.18-5.51.41.09-.61-.54-.4-.92-.41-10.4-.35-21,.6-31.31-.41h82.8Z"/>
      <path class="st300" d="M92.69,12.32l-9.28,2.04c-11.53,1.52-23.07,3.13-34.57,4.89v-.61c11.83-1.97,24.31-4.31,36.1-5.91,2.84-.39,4.89-.33,7.75-.41Z"/>
      <path class="st280" d="M24.98,13.34c-2.07,2.91-5.71,3.95-8.77,5.4,2.76-.47,6.44-1.61,8.06-3.98.26.84.65,2.27.31,2.65-.6.67-7.35,3.67-7.85,3.47-.33-.13-2.28-3.13-2.55-3.67,2.17-.75,4.49-1.16,6.63-2.04.85-.35,3.89-2.82,4.18-1.84Z"/>
      <path class="st267" d="M147.35,3.96l.1,3.06c.66-1.19.8-.2,1.02-.2.91,0,.37-2.2.51-2.86.28-.02.39,0,.41,0,.01,1.32-.64,1.97.2,3.06.42.55,1.84.92,2.24,1.63-.08.1.22.29.2.31-1.28,1.63-2.81,3.16-4.08,4.79-.16-.99-.32-2.07-.82-2.96-.73-1.3-4.16-3.33-4.28-3.77.63.12.39-.71.41-1.22h.61c.17,2.56.83.4.61-1.02l.41-.2c-.14.63.37,1.65.2,2.35l.71-1.94.61,2.04.31-3.06c.33-.02.46.01.61,0Z"/>
      <path class="st59" d="M27.22,6.41c-.01.13.01.28,0,.41-.06.6-.07,1.97-.2,2.75-.15.87-.81,1.56-1.02,2.35-.12.44.06,0,.2.41-.06.05-.99,1.15-1.02,1.22-.21.03-.17-.08-.2-.2-.29-.99-3.33,1.49-4.18,1.84-2.14.88-4.45,1.29-6.63,2.04-.02-.04-.6-.36-.61-.51-.05-.87,3.34-1.15,4.38-1.53,4.02-1.47,7.97-3.62,8.26-8.16.55.14.36-.37.41-.41.14-.13.41-.24.61-.2Z"/>
      <path class="st188" d="M156.53,2.94c.57.01-.75,1.44-.82,1.53-1.02,1.33-2.88,2.93-3.87,4.18-.4-.71-1.82-1.08-2.24-1.63.82-.5.24-2.13.41-3.06.31-.02.39,0,.41,0l.31,3.06.31-3.06c1.71-.13,4.09-.36,5.51-1.02Z"/>
      <path class="st289" d="M33.55,17.83c-1.83.58-2.66,1.35-4.69,1.22-.59-.04-1.83-.2-2.35-.41-.88-.35-1.06-1.66-1.94-1.22.34-.38-.05-1.81-.31-2.65-1.61,2.37-5.29,3.51-8.06,3.98,3.06-1.46,6.7-2.49,8.77-5.4.04.12,0,.23.2.2-.44,1-.33,1.71,0,2.65.82,2.34,3.65,2.93,5.81,2.24,4.13-1.32,2.09-8.56-3.77-6.53-.16.06-.98.38-1.02.41-.15-.41-.32.03-.2-.41,1.43-.94,4.69-.96,6.02,0,1.54,1.11,1.64,2.88,1.53,4.59,0,.08-.81.88,0,1.33Z"/>
      <path class="st233" d="M24.57,3.96c-1.14-.18-.42,2.01-.61,2.86-.18-.03-1.28.27-1.43-.1-.1-.25.14-1.93-.1-1.94l-.41,2.24c-.7-.16-.41-.13-.61-.82-.57.5-.13.83-1.02.82l-.2-1.63-.41,1.63c-.39-.96-.59-2.34.31-3.06.06-.05,1.01-.48,1.12-.41-.04,2.88.5.14.82,0,.35-.15.29.42.41.41.09,0,.32-.4.41-.41.68-.03.76.71,1.43,0,.14.13.24.22.31.41Z"/>
      <path class="st266" d="M143.06,3.96c-.25.61-.36,2.53-.2,3.06.13.44,3.55,2.47,4.28,3.77.5.89.65,1.97.82,2.96-.03.03.09.24-.2.61-.59-2.01-1.68-3.82-3.37-5.1-.9-.68-3.27-1.34-3.57-2.24,2.22.03,1.24-1.38,1.43-3.06.18.01.63-.54.82,0Z"/>
      <path class="st244" d="M18.05,4.37c.17.71.61,2.72-.41,2.45.02-.87-.16-1.85.2-2.65.73-.32.15-.02.2.2Z"/>
      <g>
        <path class="st198" d="M158.77,2.94c-.02-.3-.63-.25-.82-.2-.19.05-.47-.1-.61.1-3.83,4.86-7.51,9.83-11.22,14.79-2.35,3.14-4.74,6.25-6.83,9.59-35.02.6-70.13-.8-105.13,0h-13.77c-2.33-4.06-5.31-7.66-8.06-11.42-1.85-2.53-3.89-4.93-5.71-7.44-.1-.14.38-.57.2-.82-.62-.86-1.63-1.86-2.35-2.75-.02-.02-.27.42-.51.1-.06-.08-.1-1.13-.61-1.63,3.51-.05,7.1-.28,10.61-.1.32.02,1.31-.08,1.43.1-.91.6-.79.64-.92,1.73-.17-1.82-.91-.96-2.24-1.02-.16,0,.12-.43-.61-.41-.2,0-.34.61-.41.61-.08,0-1.26-.55-1.63-.41-.58.23-.19,2.4-.31,2.96h1.84l.1-2.35.2,2.45c.7-.25,2.09.1,2.65,0,.59-.11-.56-1.82.71-1.63-.38,3.78.88.3.41-1.43.12-.05.75-.03.82.1-.36,1.25-.69,3.77,1.22,2.65.17-1.31-.54-1.85.61-2.35-.37.8-.18,1.79-.2,2.65-.13,4.56-2.09,5.2-6.12,6.63-.56,1.25,7.23-.09,7.55-3.87.07-.91-.62-1.91-.61-2.04.03-.86.6-.37.61-.61.05-.88.13-2.14-.2-2.96.38-.21,1.36-.7,1.22,0-.9.71-.7,2.1-.31,3.06l.41-1.63.2,1.63c.89.02.45-.32,1.02-.82.2.68-.09.66.61.82l.41-2.24c.24,0,0,1.69.1,1.94.15.37,1.25.07,1.43.1.4.06.2.03.41,0,.29-.04,1.02.37,1.22-.1.17-.39-.03-1.91.41-2.35-.23.73.24,2.14.2,2.65-.29,4.54-4.24,6.69-8.26,8.16-1.04.38-4.44.66-4.38,1.53,0,.15.59.47.61.51.27.54,2.22,3.54,2.55,3.67.5.21,7.25-2.8,7.85-3.47.87-.44,1.06.87,1.94,1.22.51.21,1.76.37,2.35.41.07.55-.53.67-.92.82-3.09,1.16-6.67,2.23-9.99,2.24-.17,1.81,2.69,1.2,3.87,1.02,6.61-1.01,15.87-5.94,23.45-7.34,9.95-1.83,20.42-.17,30.59-2.86.45-.12,1.09-.16.92-.82,2.46-.08,5.15.16,7.65.2.26,0,.59-.66.51.41-11.79,1.6-24.27,3.95-36.1,5.91-9.33,1.55-15.28,3.4-24.17,5.71-1.94.5-6.65.02-3.67,2.45,5.26-.24,10.53-.57,15.81-.61,14.04-.12,28.1.2,42.42.2s27.59.18,41.4,0c6-.08,12.04.06,18.05,0,.96-.94,1.81-2.02,2.65-3.06.26-.32.66-.57-.1-.61,1.99-1.45,4.76-6.09,6.53-8.36.29-.38.18-.58.2-.61,1.27-1.63,2.79-3.16,4.08-4.79.01-.01-.28-.21-.2-.31.99-1.26,2.85-2.85,3.87-4.18.07-.09,1.38-1.52.82-1.53l-.41-.2,2.75-.2-.1.41Z"/>
        <path class="st1" d="M17.64,6.82c1.02.28.57-1.74.41-2.45.64.15.51-.24.82-.41.33.81.25,2.08.2,2.96-.01.24-.58-.25-.61.61,0,.13.69,1.13.61,2.04-.31,3.79-8.11,5.13-7.55,3.87,4.03-1.43,5.99-2.07,6.12-6.63Z"/>
        <path class="st153" d="M34.16,27.21c-2.03.05-4.42-.01-6.42.2-.55.06-.81-.21-.71.61-2.27-.04-4.56.03-6.83,0-.16-.05-.28-.39-.31-.41-.75-.66-5.73-8.38-6.73-9.89-.23-.34-1.1-1.53-.82-1.94,2.74,3.76,5.73,7.36,8.06,11.42h13.77Z"/>
        <path class="st228" d="M8.36,3.56c.75-.48.57,3.13.41,3.26-.68.56-.72-3.06-.41-3.26Z"/>
        <path class="st308" d="M14.78,5.19c.06-.61-.24-1.14.41-1.43.48,1.73-.79,5.2-.41,1.43Z"/>
      </g>
      <path class="st230" d="M139.19,28.03c.7-.1.33.89.41,1.43-32.28.04-64.59-.05-96.87,0-2.44,0-4.9,0-7.34,0,2.77-.87,22.2.46,23.15-.2.22-.16.05-.92.1-1.22,26.85.05,53.71-.04,80.56,0Z"/>
      <path class="st88" d="M140.01,3.96c-.42,2.46,1.36,3.27-1.53,3.06-.16-.01-.05-.4-.2-.41-.39-.03-.43.43-.82.41-.21-.01-.33-.61-.41-.61-.07,0-.34.41-.41.41-.48-.02-1.42-.43-2.14,0-.94-.79-.67-1.75-.41-2.86,1.97.03,3.93-.07,5.91,0Z"/>
      <path class="st174" d="M125.93,3.76l-.1,3.26c-2.73-.23-3,.51-2.75-2.86.98-.24,1.86-.34,2.86-.41Z"/>
      <path class="st220" d="M130.22,3.96v2.96c-3.29.3-2.68-.04-2.65-3.16.84-.03,1.92.21,2.65.2Z"/>
      <path class="st156" d="M148.98,3.96c-.14.66.4,2.85-.51,2.86-.22,0-.36-.99-1.02.2l-.1-3.06c.6-.04,1.11.03,1.63,0Z"/>
      <path class="st137" d="M133.48,3.96c-.1,1.64.63,3.47-1.63,2.86-.14-.84.1-1.97,0-2.86.56,0,1.07,0,1.63,0Z"/>
      <path class="st18" d="M142.25,3.96c-.19,1.68.8,3.09-1.43,3.06-.34-1.03-.17-2.01-.2-3.06.54.03,1.1-.04,1.63,0Z"/>
      <path class="st119" d="M146.74,3.96l-.31,3.06-.61-2.04-.71,1.94c.17-.7-.34-1.72-.2-2.35.25-1.14.88-.55,1.84-.61Z"/>
      <path class="st231" d="M150,3.96c-.17.93.41,2.56-.41,3.06-.84-1.09-.19-1.74-.2-3.06.2-.01.41.01.61,0Z"/>
      <path class="st102" d="M151.02,3.96l-.31,3.06-.31-3.06c.2-.01.41.01.61,0Z"/>
      <path class="st183" d="M143.27,5.8c-.02.52.22,1.34-.41,1.22-.15-.53-.05-2.45.2-3.06.35.4.22,1.32.2,1.84Z"/>
      <g>
        <path class="st27" d="M156.12,2.74l.41.2c-1.42.66-3.79.89-5.51,1.02-.2.01-.41-.01-.61,0-.02,0-.1-.02-.41,0-.2.01-.41-.01-.61,0-.02,0-.13-.02-.41,0-.52.03-1.03-.04-1.63,0-.16.01-.28-.02-.61,0-.95.06-1.59-.52-1.84.61l-.41.2c-.3-1.97-.69-.23-.61,1.02h-.61c.02-.51.15-1.44-.2-1.84-.19-.54-.64.01-.82,0-.54-.04-1.09.03-1.63,0-.32-.02-.42,0-.61,0-1.98-.07-3.94.03-5.91,0-.21,0-.42,0-.61,0-.56,0-1.07,0-1.63,0-.13,0-.27,0-.41,0-.2,0-.41,0-.61,0s-.4,0-.61,0c-.74,0-1.81-.23-2.65-.2-.51.02-.39.2-.41.2-.13,0-.33-.23-.82-.2-.13,0-.27,0-.41,0-1,.07-1.88.16-2.86.41-.12.03-.31-.03-.41,0-.88.31-.7.34-.61,1.63h-.61c.04-.39.36-1.76-.31-1.84-.3.59-.43,1.86-.31,2.45h-.41c.06-.31.11-2.45-.31-2.45l-.31,2.86c-.1.03-.27,0-.41,0-.19-.77.48-2.54-.51-2.86-.34.94.11,2.15-.1,3.06-.23.98-2.2,2.28-2.86,3.06-.45-.91.85-2.43,1.02-3.06.24-.88.41-2.22,0-3.06-.35-.51-.57.28-1.02.2-.5-.09-.39,0-.41,0-.58-.06-.32-.32-.71-.61l-6.83.61-.2-.2c-.31-.52-1.75.22-2.04.2-.26-.01-.39,0-.41,0-.44-.02-.67-.6-.92-.61-.07,0-.21.4-.71.41-.07,0-.14,0-.2,0-.02,0,.06-.41-.1-.41-.39,0-.52.4-.61.41-1.39.04-1-.64-2.35.2-.03.02-.43-.54-.61-.1s.14,2.13,0,2.75c-.12.05-.42-.03-.61,0l-.1-2.86-.31,2.86c-.2,0-.41,0-.61,0l-.31-2.86-.1,3.06c-.33,0-.36-.1-.61-.2.56-5.05-1.48-2.12,0,.2-.15.43-.69.06-1.02,0l-.1-3.06c-.97.34-.45,2.3-.31,3.06-.96-.42.02-1.94-.61-2.86-.48-1.12-1.14,2.62-.2,2.86-.36.62-.76-.19-1.02-.2l-.1-2.86c-.77-.2-.6,2.44-.31,2.86-.26,0-.12.09-.61,0l-.1-2.86c-.88.44-.55,2.26-.31,3.06-.32-.05-.36-.1-.61-.2-.19-1.03.46-2.29-.41-2.45-.12-.02-.59-.02-.61,0-.57.41-.74,2.34,0,2.65-.29.62-.59-.08-.82-.2l-.2-2.65c-1.21-.13-2.73-.5-3.87,0-.14.06-.32-.35-.51-.2-.36.27-.69,2.97.31,3.06-.35.51-.61-.06-1.02,0l-.31-3.06c-.4,0-.65,3.12.31,3.06-.03,0-.06.19-.61.2-.91.03-1.35-.4-1.43-.41,0-.47.15-2.92-.51-2.86l-.1,3.06c-.2-.02-.41,0-.61,0l-.1-3.06c-.8.15-.74,2.66-.1,3.06-.03,0-.22.47-.61.1l-.2-1.53c.02-.29.06-1.14,0-1.33-.2-.6-.58-.09-.61-.1-.96-.49-1.78-.54-2.86,0-.02,0-.07-.39-.31-.2-.29.23-.42,2.82.31,3.06-.21.5-.65-.03-1.02,0l-.1-3.06c-1.01.36-.31,2.24-.51,3.06-.02,0,.09.23-.41,0-.14-.73.2-2.25,0-2.86-.04-.12.08-.29-.1-.41-.22-.14-4.65.16-5.3.2-.12,0-.31-.62-1.33.2-.01-.07,0-.14,0-.2-.15-.48-2.62.02-3.16-.2l-.1.41c-.2-.02-.17.07-.2.2.1-.66-2.62-.67-2.75-.61-.64.28,0,1.48-.51,1.84.06-.51.07-1.17-.2-1.63-.35-.5-.56.28-1.02.2-.48-.08-.39,0-.41,0-.63-.07-.35-.4-.51-.41-.41-.03-3.5-.07-3.67,0-.71.3.18,1.77-.71,1.84,0-.51.17-1.23,0-1.63l-.31-.2c-.09.12-.5.57-.51.61l-.61-.1.41,2.75c-.16.44-.68.05-1.02,0l-.1-3.06-.31,3.06c-.65-.26-.21-.26-.61-.61.03-.26.24-2.45-.41-2.14.21.35-.46,2.82.41,2.55l-.1.41c-.55-.08-.36-.2-.92-.2l-.31-2.86c-.02.65-.51,2.58.31,2.86-.34,0-.5.25-1.02-.2-.06-1,.49-1.62,0-2.65-.04-.08.09-.3-.1-.41-.65.73-.69-.49-1.73.61-.02-.13,0-.27,0-.41-1.37-.77-.35,1.54-1.22,1.43.04-.51.46-.86,0-1.43l-1.02.2c0-.07,0-.14,0-.2.21-.58-1.26,0-1.63,0-.5,0-2.77-.39-3.06,0,.04.24-.2.19-.2.2-.2,0-.41.01-.61,0-.22-.01-.25,0-.41,0-.12,0-.26.17-.61.2-.26.02.47-.54-.41,0-.08.05-.44-.03-.61,0,0-.13.02-.28,0-.41-.13-.76-.5-.02-1.02.2,0-.01-.24.03-.2-.2-.11-.18-1.52-.28-1.22.2.07.71-.1,1.56,0,2.24h-.61c.09-.59.14-1.96-.31-2.45l-.1,2.65c-.11-.05-.41-.02-.61-.2.08-.41.18-2.16-.31-2.45l-.1,2.86c-.83.19-.07-1.09-.61-1.43.06-.53.03-.94-.2-1.43-.53-1.09-.63,1.5-.82,1.43,0-.37,0-.75,0-1.12-.18-.33-.41-.24-.61-.31-.03-.01-.54.17-.61.2-.02,0-.05-.44-.41-.1v2.75l-.41.1-.2-1.53c.1-3.16-1.09,0-.61,1.43l-.41-1.43c-.01-.37,0-.75,0-1.12-.71-.77-.56.11-.61.1-.15-.03-.48-.03-.61,0-.02,0,.08-.69-.41-.31-.06.77.08,1.58,0,2.35-.2-.04-.48.08-.61.2l-.31-2.65c-.14.13-.25.22-.31.41-.44.43-.24,1.95-.41,2.35-.2.47-.93.07-1.22.1.23-.58.36-2.37.2-2.86-.06-.19-.16-.28-.31-.41-.67.71-.75-.03-1.43,0-.08,0-.32.4-.41.41-.11.01-.06-.56-.41-.41-.31.14-.85,2.88-.82,0-.11-.07-1.06.36-1.12.41.14-.7-.84-.21-1.22,0-.31.17-.17.56-.82.41-.05-.22.53-.52-.2-.2-1.15.49-.44,1.03-.61,2.35-1.91,1.12-1.58-1.4-1.22-2.65-.07-.14-.7-.15-.82-.1-.65.28-.35.82-.41,1.43-1.27-.19-.12,1.52-.71,1.63-.56.1-1.95-.25-2.65,0l-.2-2.45-.1,2.35h-1.84c.11-.56-.28-2.73.31-2.96.37-.15,1.55.42,1.63.41.07,0,.2-.6.41-.61.73-.03.46.4.61.41,1.34.06,2.08-.8,2.24,1.02.13-1.09,0-1.13.92-1.73-.11-.18-1.11-.09-1.43-.1v-.61c47.37-.39,94.78.12,142.15.2Z"/>
        <g>
          <path class="st145" d="M26.61,6.61s.14.54-.41.41c.03-.51-.43-1.92-.2-2.65.06-.19.16-.28.31-.41l.31,2.65Z"/>
          <path class="st269" d="M24.57,3.96c.16.49.02,2.28-.2,2.86-.21.03,0,.06-.41,0,.2-.85-.53-3.04.61-2.86Z"/>
          <path class="st71" d="M82.7,6.82c-.17,0-.22.24-.61.2l.1-3.06c.66-.06.5,2.38.51,2.86Z"/>
          <path class="st150" d="M85.96,4.17c-.01.5.01,2.55-.2,2.86-.99-.09-.67-2.78-.31-3.06.19-.14.37.27.51.2Z"/>
          <path class="st258" d="M93.91,6.82s-.29,0-.41,0c-.29-.42-.46-3.06.31-2.86l.1,2.86Z"/>
          <path class="st89" d="M75.97,7.02c-.18.02-.46.03-.61,0,.2-.82-.5-2.69.51-3.06l.1,3.06Z"/>
          <path class="st16" d="M121.45,5.8c-.05.44-.22,2.44-.61.61-.12-.58,0-1.86.31-2.45.66.08.35,1.45.31,1.84Z"/>
          <path class="st295" d="M81.47,7.02c-.07,0-.14,0-.2,0-.64-.4-.7-2.91.1-3.06l.1,3.06Z"/>
          <path class="st141" d="M144.49,4.78c.22,1.42-.44,3.58-.61,1.02-.08-1.25.31-2.99.61-1.02Z"/>
          <path class="st285" d="M119.41,6.82c-.21.01-.29.3-.61.2.21-.91-.24-2.12.1-3.06.99.32.32,2.08.51,2.86Z"/>
          <path class="st67" d="M117.88,3.96l.2,3.06c-.89-.05-.56-3.06-.2-3.06Z"/>
          <path class="st108" d="M83.21,3.96c.89.05.56,3.06.2,3.06l-.2-3.06Z"/>
          <path class="st45" d="M96.16,7.02c-.13-.02-.33.03-.41,0-.14-.75-.66-2.72.31-3.06l.1,3.06Z"/>
          <path class="st299" d="M122.67,4.17c.32,1.13-.41,4.56-.61,1.63-.09-1.29-.27-1.33.61-1.63Z"/>
          <path class="st155" d="M84.74,7.02c-.95.06-.71-3.06-.31-3.06l.31,3.06Z"/>
          <path class="st83" d="M100.44,4.17c0,.55.08,2.6-.31,2.86-.02.01-.17-.26-.31-.2.14-.63-.19-2.3,0-2.75s.59.12.61.1Z"/>
          <path class="st253" d="M92.89,6.82c-.18-.03-.23.23-.41.2-.24-.8-.58-2.61.31-3.06l.1,2.86Z"/>
          <path class="st5" d="M120.43,6.41c-.19.98-.45.36-.61.41l.31-2.86c.41,0,.36,2.14.31,2.45Z"/>
          <path class="st86" d="M95.14,4.17c.09.22-.09,2.68-.2,2.86-.93-.23-.27-3.98.2-2.86Z"/>
          <path class="st61" d="M29.88,5.39c-.01.44-.37.97-.2,1.53l-.41-.1c-.47-1.44.72-4.59.61-1.43Z"/>
          <path class="st275" d="M97.18,6.82v.2c-1.48-2.32.56-5.25,0-.2Z"/>
          <path class="st256" d="M76.99,4.17v2.86c-.73-.24-.6-2.83-.31-3.06.23-.19.29.21.31.2Z"/>
          <path class="st134" d="M35.18,6.41c-.03.19.09.49-.1.61-.42.1-.28-.4-.31-.41l.1-2.65c.45.49.39,1.86.31,2.45Z"/>
          <path class="st58" d="M49.86,6.82c-.54-.47-.76-1.95,0-2.65.49,1.03-.06,1.66,0,2.65Z"/>
          <path class="st81" d="M54.15,4.37c-.32.91-.19,1.72-.2,2.65l-.41-2.75.61.1Z"/>
          <path class="st247" d="M52.92,7.02c-.13-.02-.32.03-.41,0l.31-3.06.1,3.06Z"/>
          <path class="st13" d="M27.63,4.37c-.13.54.34,3.08-.41,2.45.01-.13-.01-.28,0-.41.08-.76-.06-1.57,0-2.35.49-.38.38.31.41.31Z"/>
          <path class="st283" d="M98.2,6.82s.1.19-.41.2l.1-3.06.31,2.86Z"/>
          <path class="st32" d="M30.9,4.17v2.75l-.41-.1v-2.75c.36-.33.39.11.41.1Z"/>
          <path class="st173" d="M34.16,6.41c-.1.49.06.3-.41.41l.1-2.86c.48.29.38,2.04.31,2.45Z"/>
          <path class="st194" d="M99.22,6.82c-.47.07-.39,0-.41,0l.31-2.86.1,2.86Z"/>
          <path class="st274" d="M50.88,7.02c-.81-.28-.32-2.2-.31-2.86l.31,2.86Z"/>
          <path class="st261" d="M35.79,6.41c-.1-.68.07-1.53,0-2.24.8.21.4,2.9.1,2.86-.19-.14-.07-.4-.1-.61Z"/>
          <path class="st113" d="M51.9,6.41c-.02.13,0,.27,0,.41-.87.27-.2-2.2-.41-2.55.65-.31.44,1.88.41,2.14Z"/>
        </g>
      </g>
      <path class="st116" d="M27.02,28.03c10.52.17,21.08-.02,31.61,0-.05.31.12,1.07-.1,1.22-.94.67-20.38-.66-23.15.2-4.72.01-10.74-.44-15.3.2-.28-.57-.65-1.11-1.02-1.63l.82-.41s.14.36.31.41c2.28.03,4.56-.04,6.83,0Z"/>
      <path class="st192" d="M79.43,10.9c12.02-.01,24.07-.12,36.1,0,1.36.01,4.77-.26,5.81,0,.49.12.22.46.51.82H39.05c-1.31-.13-2.65-.29-3.98-.2-.13-.5,2.02-.6,2.24-.61,13.51-.67,28.44.02,42.11,0Z"/>
      <path class="st217" d="M123.28,12.12c.16.09.3.14.41.31-6.41,5.78-15.68,6.71-23.96,7.85-6.16.85-12.46,1.29-18.66,1.84-14.76,1.3-29.57,1.58-44.26,3.47-.04-1.19.4-.23.92-.41,2.29-.78,4.91-.94,7.44-1.22,19.14-2.12,38.69-1.8,57.82-4.89,6.29-1.02,13.75-2.34,18.66-6.53.56-.06,1.05-.45,1.63-.41Z"/>
      <path class="st77" d="M107.17,12.73c-2.99.92-6.26,2.92-9.69,3.87-18.22,5.07-35.65,2.65-53.54,5.51-6.68,1.07-13.23,3.55-20.09,3.47-.2-.1.13-.38.2-.41,7.31-3.04,16.96-4.71,24.78-5.91,11.49-1.77,23.03-3.37,34.57-4.89l9.28-2.04c4.53-.12,9.44-.14,13.97,0,.37.01.91-.18.51.41Z"/>
      <path class="st311" d="M114.1,12.53c-2.75,3.22-7.45,3.53-11.11,4.69,4.41-.42,10.07-1.64,13.15-4.89,1.79,0,3.81.38,5.51.2-4.91,4.19-12.37,5.51-18.66,6.53-19.13,3.09-38.68,2.77-57.82,4.89-.21-.3.03-1.46,0-1.53-.12-.3-1.26.62-1.22-.31,17.89-2.85,35.32-.43,53.54-5.51,3.43-.95,6.7-2.95,9.69-3.87,2.57-.79,4.37-.16,6.93-.2Z"/>
      <path class="st185" d="M116.14,12.32c-3.08,3.25-8.74,4.48-13.15,4.89,3.67-1.16,8.37-1.47,11.11-4.69.7-.01,1.27-.21,2.04-.2Z"/>
      <g>
        <path class="st70" d="M38.24,3.96c-.95-.06-.88,2.97-.1,3.06.14-.85.16-1.8.1-2.65.17-.03.53.05.61,0l.31,2.65.1-2.65c.36-.03.49-.21.61-.2l.31,2.86.1-2.86c.2.01.41,0,.61,0-.11.42-.03,2.39.31,2.86.42,0,.51-2.77-.1-3.06.29-.39,2.56,0,3.06,0l.31,3.06c.61,0,.35-3.92-.31-3.06.37,0,1.85-.58,1.63,0-.75.21-.79,2.73,0,2.96-.08-.88.11-1.9,0-2.75l1.02-.2c-.74.3-.46,3.07-.1,3.06.56-.64.06-1.01.1-1.63.87.11-.14-2.2,1.22-1.43-1.07.1-.65,2.43-.31,3.06.43,0,.35-2.33.31-2.65,1.04-1.1,1.08.12,1.73-.61.19.11.06.32.1.41-.76.7-.54,2.18,0,2.65s.68.2,1.02.2c.56,0,.36.12.92.2l.1-.41c0-.13-.02-.28,0-.41.4.35-.04.35.61.61.08.03.28-.02.41,0,.34.05.86.44,1.02,0,.02-.93-.12-1.74.2-2.65.01-.04.42-.5.51-.61l.31.2c-.89.58-.16,2.1-.2,2.96.68.64.2-1.15.2-1.33.89-.07,0-1.53.71-1.84.17-.07,3.26-.03,3.67,0,.16.01-.12.34.51.41l.31,2.86.1-2.86c.45.07.67-.71,1.02-.2l-.41,2.96c.64.26.58-1.1.61-1.33.51-.35-.13-1.56.51-1.84.14-.06,2.86-.05,2.75.61-.03.13-.07,2.46.31,2.65l-.1-2.86.1-.41c.54.23,3.01-.28,3.16.2-.65.03-.66,3.12,0,2.96-.09-.86.13-1.93,0-2.75,1.02-.83,1.21-.2,1.33-.2.65-.05,5.08-.35,5.3-.2.19.12.06.29.1.41-1.13-.46-.42,2.22-.61,2.75.1.21.48.04.61.1.49.23.39,0,.41,0,.15.03.43.02.61,0,.37-.03.81.5,1.02,0v-2.86c1.07-.54,1.9-.49,2.86,0v2.75c.42.37.61-1.25.61-1.33l.2,1.53c.39.36.58-.11.61-.1.06,0,.14,0,.2,0,.2,0,.41-.02.61,0,.39.03.44-.21.61-.2.08,0,.51.44,1.43.41-.05,1.16-1.51,1.83-2.24,2.45-1.28-1.6-1.07-.75-1.63,0-.26.35-.42.83-.82,1.22-13.67.02-28.61-.67-42.11,0-.23.01-2.37.12-2.24.61,1.33-.09,2.67.08,3.98.2,10.31,1,20.91.06,31.31.41.37.01,1.01-.21.92.41-3.77.47-7.62,1.79-11.52,2.04-11.06.69-14.91-.32-26.21,3.26-.81-.45,0-1.25,0-1.33.11-1.71.01-3.48-1.53-4.59-1.33-.96-4.59-.94-6.02,0,.21-.79.87-1.48,1.02-2.35.14-.78.15-2.16.2-2.75.75.63.28-1.91.41-2.45.13-.03.46-.03.61,0l.31,2.65c.37-.5.33-1.03.31-1.63l.41,1.43.41.1c-.16-.56.19-1.09.2-1.53l.2,1.53.41-.1.41.1v-2.75c.08-.03.58-.21.61-.2.18.83-.42,2.69.41,2.96-.2-.48.2-1.27.2-1.53.18.08.29-2.51.82-1.43l-.41,2.75.41.2c-.17-.55.16-1.14.2-1.53.54.34-.21,1.61.61,1.43.46-.1.31.08.41-.41.2.19.5.15.61.2.02.01-.12.51.31.41.19-.12.07-.42.1-.61h.61c.03.21-.09.47.1.61.3.04.7-2.64-.1-2.86-.3-.49,1.11-.39,1.22-.2l-.2,2.96c.22-.75.5-1.99.41-2.75.52-.22.89-.96,1.02-.2Z"/>
        <g>
          <path class="st31" d="M38.24,3.96c.02.13,0,.28,0,.41.06.85.04,1.8-.1,2.65-.78-.09-.85-3.12.1-3.06Z"/>
          <path class="st106" d="M74.95,4.17c.2.6-.14,2.12,0,2.86-.14-.06-.51.11-.61-.1.19-.53-.51-3.22.61-2.75Z"/>
          <path class="st75" d="M48.03,3.96c0,.13-.02.28,0,.41.05.32.12,2.66-.31,2.65-.35-.63-.76-2.95.31-3.06Z"/>
          <path class="st201" d="M28.86,5.39c.02.61.06,1.13-.31,1.63l-.31-2.65c.05,0-.1-.87.61-.1,0,.37-.01.75,0,1.12Z"/>
          <path class="st265" d="M61.49,5.59c-.03.23.03,1.59-.61,1.33l.41-2.96c.27.46.27,1.12.2,1.63Z"/>
          <path class="st298" d="M40.89,4.17s.24.03.2-.2c.61.29.52,3.07.1,3.06-.34-.47-.42-2.43-.31-2.86Z"/>
          <path class="st133" d="M80.45,5.59c0,.07-.19,1.7-.61,1.33v-2.75s.41-.5.61.1c.06.19.02,1.04,0,1.33Z"/>
          <path class="st69" d="M32.12,5.39c0,.26-.41,1.05-.2,1.53-.83-.27-.23-2.13-.41-2.96.2.07.43-.03.61.31,0,.37,0,.75,0,1.12Z"/>
          <path class="st9" d="M46.8,5.39c-.04.62.46.99-.1,1.63-.35,0-.64-2.76.1-3.06.46.57.04.92,0,1.43Z"/>
          <path class="st235" d="M45.78,3.96c0,.07,0,.14,0,.2.11.85-.08,1.87,0,2.75-.79-.23-.75-2.75,0-2.96Z"/>
          <path class="st74" d="M33.14,5.39c-.04.39-.38.98-.2,1.53l-.41-.2.41-2.75c.24.49.26.9.2,1.43Z"/>
          <path class="st152" d="M68.22,3.96c0,.07-.01.14,0,.2.13.82-.09,1.89,0,2.75-.66.16-.65-2.92,0-2.96Z"/>
          <path class="st279" d="M60.26,4.17l-.1,2.86-.31-2.86s-.08-.08.41,0Z"/>
          <path class="st252" d="M39.26,4.37l-.1,2.65-.31-2.65c.88-.54.15.02.41,0Z"/>
          <path class="st175" d="M54.96,5.59c0,.17.48,1.97-.2,1.33.04-.85-.68-2.38.2-2.96.17.4,0,1.12,0,1.63Z"/>
          <path class="st196" d="M64.75,4.37c.03-.13,0-.23.2-.2l.1,2.86c-.38-.19-.34-2.52-.31-2.65Z"/>
          <path class="st22" d="M40.28,4.17l-.1,2.86-.31-2.86c.16,0,.19-.01.41,0Z"/>
          <path class="st144" d="M37.22,4.17c.09.76-.19,2-.41,2.75l.2-2.96c-.04.24.2.19.2.2Z"/>
          <path class="st39" d="M34.26,8.25c.16-.08,1.26-.02,1.53.1-2.13,1.28.44.48-.71,2.14l-1.33-.31c.41-.33.42-1.89.51-1.94Z"/>
          <path class="st276" d="M72.6,8.65c1.14-.55,1.77,1.59,1.22,1.84-1.61.72-2-1.46-1.22-1.84Z"/>
          <path class="st159" d="M56.29,9.06c.66-.47,1.95.56,1.73,1.12-.45,1.14-2.86-.33-1.73-1.12Z"/>
          <path class="st26" d="M64.85,8.86c.7-.18,1.59,1.41,1.02,1.63-1.72.67-1.95-1.4-1.02-1.63Z"/>
          <path class="st98" d="M81.88,9.67c-.08.07.26,1.39-1.33.82-.56-.2.18-.69-.31-.82.56-.75.35-1.6,1.63,0Z"/>
          <path class="st312" d="M41.81,9.06c.88-.3,1.62,1.21,1.22,1.43-1.69.67-2.28-1.07-1.22-1.43Z"/>
          <path class="st260" d="M49.15,8.86c.75-.19,1.35,1.36,1.22,1.43-1.35.03-1.67.57-1.73-1.12.16-.02.44-.29.51-.31Z"/>
          <path class="st149" d="M72.4,3.96c.53,0,.41,3.26,0,3.26-.52-.34-.41-3.26,0-3.26Z"/>
          <path class="st262" d="M71.17,3.96c.84-.01.53,2.96.41,3.06-.75.62-.55-2.81-.41-3.06Z"/>
          <path class="st229" d="M69.14,3.96c.46,0,.38,2.92.2,3.06-.75.62-.66-3.06-.2-3.06Z"/>
          <path class="st297" d="M77.9,3.96c.46,0,.38,2.92.2,3.06-.75.62-.66-3.06-.2-3.06Z"/>
          <path class="st242" d="M78.92,3.96l.2,3.06c-.89-.05-.56-3.06-.2-3.06Z"/>
          <path class="st236" d="M66.89,3.96l.2,3.06c-.89-.05-.56-3.06-.2-3.06Z"/>
          <path class="st206" d="M44.15,3.96c.66-.86.92,3.06.31,3.06l-.31-3.06Z"/>
          <path class="st28" d="M57.92,3.96l.2,3.06c-.81-.13-.61-3.06-.2-3.06Z"/>
          <path class="st142" d="M58.94,3.96l.2,3.06c-.53.33-.78-3.06-.2-3.06Z"/>
          <path class="st241" d="M70.15,3.96l.2,3.26c-.47-.27-.74-3.26-.2-3.26Z"/>
          <path class="st7" d="M56.9,3.96l.2,3.06c-.53.33-.78-3.06-.2-3.06Z"/>
          <path class="st177" d="M42.21,3.96l.2,3.06c-.5.31-.78-2.67-.2-3.06Z"/>
          <path class="st301" d="M62.2,3.96c.48,0,.5,3.23-.2,3.06l.2-3.06Z"/>
          <path class="st224" d="M55.88,3.96c.41,0,.52,2.73,0,3.06-.16-.38-.62-3.06,0-3.06Z"/>
          <path class="st176" d="M43.23,3.96c.98.29.09,2.26.2,3.06l-.2-3.06Z"/>
          <path class="st268" d="M65.87,3.96c.51.33.34,2.95.2,3.06-.8.66-.19-2.92-.2-3.06Z"/>
          <path class="st41" d="M73.42,3.96c.63.66.25,2.24.2,3.06-.63-.66-.25-2.24-.2-3.06Z"/>
          <path class="st53" d="M64.04,4.17c.62.58.26,2.11.2,2.86-.62-.57-.26-2.11-.2-2.86Z"/>
          <path class="st139" d="M48.74,4.17c.54.49.45,2.32,0,2.86-.17-.92-.17-1.94,0-2.86Z"/>
          <path class="st166" d="M63.22,4.17c.54.49.45,2.32,0,2.86-.17-.92-.17-1.94,0-2.86Z"/>
        </g>
      </g>
      <g>
        <path class="st65" d="M103.5,3.96c-.77.1-.44,3.06-.1,3.06l.31-3.06c.51,0,.65-.41.71-.41.24,0,.47.59.92.61l.31,2.86.1-2.86c.29.02,1.72-.73,2.04-.2-1.24,3.11.39,4.49.2.2l6.83-.61c.39.3.14.55.71.61-.36.79-.34,2.24.31,2.86l.1-2.86c.45.08.67-.71,1.02-.2-.66.44-.64,2.68,0,3.06-.17.63-1.47,2.15-1.02,3.06-.18.22-.25.58-.41.82-12.02-.12-24.07-.01-36.1,0,.39-.39.55-.87.82-1.22.49.12-.26.61.31.82,1.59.57,1.25-.75,1.33-.82.73-.62,2.19-1.29,2.24-2.45.55-.02.58-.2.61-.2.41-.06.67.51,1.02,0,.21-.31.19-2.35.2-2.86,1.15-.5,2.67-.13,3.87,0-.6.22-.5,2.22-.41,2.55.14.49.57.08.61.1.22.13.52.83.82.2v-2.65s.49-.02.61,0c-.06.66-.39,1.71-.2,2.35.15.49.55.08.61.1.25.1.29.16.61.2.18.03.23-.24.41-.2.49.09.35,0,.61,0,.12,0,.39,0,.41,0,.26.02.66.82,1.02.2.12-.17.3-2.64.2-2.86.63.92-.34,2.43.61,2.86.08.03.28-.02.41,0,.33.06.87.43,1.02,0v-.2c.25.11.28.21.61.2.51,0,.39-.2.41-.2.2,0,.41,0,.61,0,.02,0-.06.07.41,0,.19-.03.49.05.61,0,.13-.06.29.22.31.2.39-.25.3-2.31.31-2.86,1.35-.84.96-.16,2.35-.2.09,0,.23-.41.61-.41.17,0,.08.41.1.41Z"/>
        <g>
          <path class="st158" d="M103.5,3.96c.07,0,.14,0,.2,0l-.31,3.06c-.34,0-.67-2.96.1-3.06Z"/>
          <path class="st148" d="M116.96,7.02c-.64-.38-.66-2.62,0-3.06.41.84.24,2.18,0,3.06Z"/>
          <path class="st313" d="M115.94,4.17l-.1,2.86c-.65-.62-.66-2.06-.31-2.86.02,0-.09-.09.41,0Z"/>
          <path class="st184" d="M90.04,6.82s-.47.39-.61-.1c-.09-.33-.19-2.33.41-2.55l.2,2.65Z"/>
          <path class="st167" d="M107.99,4.17c.18,4.29-1.45,2.91-.2-.2l.2.2Z"/>
          <path class="st170" d="M91.87,6.82c-.06-.03-.47.39-.61-.1-.19-.64.14-1.68.2-2.35.86.16.22,1.42.41,2.45Z"/>
          <path class="st79" d="M105.74,4.17l-.1,2.86-.31-2.86s.15-.01.41,0Z"/>
          <path class="st111" d="M90.86,4.37v2.65c-.74-.31-.57-2.24,0-2.65Z"/>
          <path class="st227" d="M112.88,6.82c.16.01.03.06.41,0,.2-.03.41.02.61,0-.15.95-.87,1.77-1.22,2.65l-1.02-.41c.16-.3.78-1.1.82-1.33.08-.51-.21-.8-.2-.92.2,0,.41-.01.61,0Z"/>
          <path class="st216" d="M95.85,8.86c.85-.4,1.57,1.4,1.02,1.63-1.56.65-1.68-1.32-1.02-1.63Z"/>
          <path class="st281" d="M104.01,9.06c.88-.3,1.62,1.21,1.22,1.43-1.34.76-2.4-1.03-1.22-1.43Z"/>
          <path class="st307" d="M112.68,9.47c-.1.24.51.79-.1,1.02-.1.04-1.37.04-1.43,0-.63-.45.35-1.12.51-1.43l1.02.41Z"/>
          <path class="st169" d="M88.51,9.27c1.29-.47,2.31,1.76-.2,1.22-.53-.19-.11-1.11.2-1.22Z"/>
          <path class="st57" d="M114.41,3.96c.75-.62.55,2.81.41,3.06-.84.01-.53-2.96-.41-3.06Z"/>
          <path class="st160" d="M104.42,3.96l.2,3.06c-.89-.05-.56-3.06-.2-3.06Z"/>
          <path class="st151" d="M101.15,3.96c.54,0,.4,3.06,0,3.06-.52-.33-.41-3.06,0-3.06Z"/>
          <path class="st98" d="M111.35,3.96c.98.35.47,2.33.2,3.06l-.2-3.06Z"/>
          <path class="st66" d="M112.88,6.82c-.2-.01-.41,0-.61,0,.04-.42-.19-2.86.31-2.86l.31,2.86Z"/>
          <path class="st63" d="M113.9,6.82c-.2.02-.42-.03-.61,0l.31-2.86c.43,0,.36,2.52.31,2.86Z"/>
          <path class="st197" d="M86.47,4.17c.74-.61.67,2.85.2,2.86-.51-.31-.35-2.74-.2-2.86Z"/>
          <path class="st303" d="M106.66,3.96c.52,0,.34,2.64,0,3.06-.43.09-.48-3.06,0-3.06Z"/>
          <path class="st84" d="M87.69,4.17c.46,0,.46,2.86,0,2.86-.52-.31-.41-2.86,0-2.86Z"/>
          <path class="st246" d="M88.71,4.17c.46,0,.46,2.86,0,2.86-.52-.31-.41-2.86,0-2.86Z"/>
          <path class="st130" d="M108.5,4.17c.52.31.41,2.86,0,2.86-.67-.76-.2-2.01,0-2.86Z"/>
          <path class="st35" d="M102.17,3.96c.63.66.25,2.24.2,3.06-.63-.66-.25-2.24-.2-3.06Z"/>
          <path class="st250" d="M110.33,3.96c.63.66.25,2.24.2,3.06-.63-.66-.25-2.24-.2-3.06Z"/>
          <path class="st222" d="M109.52,3.96c.05.82.42,2.39-.2,3.06-.08-.89-.38-2.29.2-3.06Z"/>
        </g>
      </g>
      <g>
        <path class="st42" d="M25.19,16.2c-.33-.94-.44-1.65,0-2.65.03-.07.96-1.18,1.02-1.22.04-.03.86-.35,1.02-.41.88.64,1.92.09,3.16.41.27.07,1.98.97,1.94,1.33-.13,1.13-1.9.09-2.35.1-2.23.04-3.61.48-4.79,2.45Z"/>
        <g>
          <path class="st208" d="M25.19,16.2c1.19-1.97,2.57-2.41,4.79-2.45.44,0,2.22,1.02,2.35-.1.04-.36-1.67-1.26-1.94-1.33-1.24-.32-2.28.24-3.16-.41,5.86-2.03,7.9,5.21,3.77,6.53-2.16.69-5,.1-5.81-2.24Z"/>
          <path class="st219" d="M28.75,14.36c3.7-.34,4.93,3.24,1.02,3.67-4.23.46-5.25-3.28-1.02-3.67Z"/>
        </g>
      </g>
      <g>
        <path class="st309" d="M126.34,3.76l.31,3.26.51-3.06s-.1-.19.41-.2c-.03,3.12-.63,3.46,2.65,3.16v-2.96c.21,0,.42,0,.61,0l.31,3.06.31-3.06c.14,0,.28,0,.41,0,.1.88-.14,2.02,0,2.86.2,1.18,2.86,1.08,4.18,1.63,2.58,1.07,5.8,3.22,6.32,6.12.68-2.05-2.96-5.71-4.49-6.53-.84-.45-2.53-.52-3.37-1.22.72-.43,1.67-.02,2.14,0,.07,0,.34-.41.41-.41.07,0,.2.6.41.61.39.03.43-.43.82-.41.16.01.05.4.2.41,2.89.21,1.11-.6,1.53-3.06.19,0,.3-.02.61,0,.03,1.05-.14,2.03.2,3.06.3.9,2.67,1.56,3.57,2.24,1.68,1.27,2.78,3.09,3.37,5.1-1.76,2.27-4.54,6.91-6.53,8.36-2.77,2.01-7.08,2.6-10.3,1.22-.86-.37-1.32-1.41-2.45-1.63-2.63-.51-6.5,1.08-9.18,1.43l-27.33,1.22,29.98.61c.49,1.09-.98.28-1.33.82-13.81.18-27.6,0-41.4,0l-.2-2.86c4.24-.29,8.52-.8,12.75-1.22-.2,1.29-3.3.25-3.67,1.22,5.31-.72,10.81-.9,16.11-1.63s21.28-2.48,21.72-9.89c.21-3.52-1.38.85-1.63,1.22-6.17,9.19-32.15,8.59-42.83,9.48l-.41-.61c6.2-.55,12.5-.98,18.66-1.84,8.28-1.14,17.55-2.08,23.96-7.85-.1-.16-.25-.22-.41-.31-.62-.35-1.03,0-1.43-.41-.29-.36-.02-.69-.51-.82-1.05-.26-4.45.01-5.81,0,.16-.24.23-.6.41-.82.65-.78,2.63-2.08,2.86-3.06.33.1.4-.19.61-.2.13,0,.31.03.41,0,.16-.05.43.57.61-.41h.41c.39,1.83.56-.17.61-.61h.61c.2,2.93.93-.5.61-1.63.1-.03.29.03.41,0-.25,3.37.02,2.63,2.75,2.86l.1-3.26c.13,0,.27,0,.41,0Z"/>
        <g>
          <path class="st207" d="M134.09,3.96c-.27,1.1-.53,2.07.41,2.86.83.7,2.52.78,3.37,1.22,1.53.81,5.17,4.47,4.49,6.53-.53-2.9-3.74-5.05-6.32-6.12-1.32-.55-3.99-.45-4.18-1.63,2.26.61,1.53-1.21,1.63-2.86.19,0,.4,0,.61,0Z"/>
          <path class="st272" d="M127.16,3.96l-.51,3.06-.31-3.26c.48-.03.68.21.82.2Z"/>
          <path class="st271" d="M131.44,3.96l-.31,3.06-.31-3.06c.2,0,.41,0,.61,0Z"/>
          <path class="st138" d="M79.03,23.54c-2.88.2-5.79.21-8.67.41,3.47-.79,7.44-.92,11.11-1.22,10.68-.89,36.66-.29,42.83-9.48.25-.37,1.84-4.75,1.63-1.22-.44,7.42-16.31,9.14-21.72,9.89s-10.81.91-16.11,1.63c.37-.98,3.47.06,3.67-1.22-4.23.43-8.51.94-12.75,1.22Z"/>
          <path class="st97" d="M118.9,20.07c.2-.04.56-.05.71.1.53,1.09-20.42,4.67-21.82,4.08,4.69-1.05,9.7-1.2,14.38-2.14,2.14-.43,4.83-1.69,6.73-2.04Z"/>
          <path class="st171" d="M118.69,9.06c.51-.25,2.61.75,2.55,1.33-.77.63-4.26-.5-2.55-1.33Z"/>
          <path class="st100" d="M125.83,8.86c.13-.05,2.15.93,2.55.92-.77,1.17-1.4.44-2.55.51-.46-.27-.43-1.27,0-1.43Z"/>
          <g>
            <path class="st212" d="M130.52,10.9c7.15-.64,8.28,9.03.2,8.36-.8-.07-3.71-1.49-3.98-2.14-.07-.16.08-3.11.2-3.47.3-.82,2.62-2.67,3.57-2.75Z"/>
            <path class="st122" d="M131.34,11.51c5.36-.34,6.18,6.71,1.22,7.34-6.07.77-6.54-7.01-1.22-7.34Z"/>
            <path class="st0" d="M131.34,14.36c3.4-.26,5.3,3.04,1.43,3.67-4.46.73-5.88-3.33-1.43-3.67Z"/>
          </g>
        </g>
      </g>
    </g>
  </g>
</svg>